<svg fill="none" height="72" viewBox="0 0 73 72" width="73" xmlns="http://www.w3.org/2000/svg"><path clip-rule="evenodd" d="m62.2224 11c-1.0688 0-1.931.7904-1.931 1.931 0 1.1497.8622 1.9221 1.931 1.9221 1.0598 0 1.922-.7814 1.922-1.9221.009-1.1406-.8532-1.931-1.922-1.931zm0 3.5836c-.9071 0-1.6167-.6646-1.6167-1.6526 0-.9879.7096-1.6526 1.6167-1.6526.9251 0 1.6167.6647 1.6167 1.6526 0 .988-.6916 1.6526-1.6167 1.6526zm.4674-1.5628c.2604-.1167.3862-.3233.3862-.5568 0-.521-.3683-.6198-.9611-.6198h-.6107v2.0478h.2964v-.7993h.4669c.036 0 .0809 0 .1258-.009l.4222.7993h.3413zm-.4312-.2155h-.458v-.6557h.4401c.2964 0 .5209.0629.5209.3233-.009.2156-.1617.3324-.503.3324zm-3.512-1.7874h-50.60207v50.6021h50.60207zm-12.6551 24.6725h-25.301v1.2664h25.301zm-10.3106-18.8523.0449.0898 4.5986 14.9542h-3.8531l-.7994-2.883h-4.6524l-.7994 2.883h-3.862l4.6165-15.044zm-2.3532 3.7991-1.455 5.2722h2.8921zm13.9032-3.7991v3.1615h2.4161v32.6389h-2.4161v3.1615h5.5865v-38.9619zm-33.357 38.9619v-38.9619h5.5776v3.1615h-2.4161v32.6389h2.4161v3.1615zm25.2558-10.5445v-1.2844c0-1.9759-1.3561-3.2244-3.7362-3.2244h-7.5714v15.0441h7.0774c2.9819 0 4.2302-1.6167 4.2302-3.7273v-1.455c0-1.2934-.8263-2.3083-1.931-2.6855 1.1047-.3682 1.931-1.3832 1.931-2.6675zm-7.9485-1.8323h2.7932c1.0509 0 1.8413.2066 1.8413 1.2126v.8622c0 .7814-.4761 1.3382-1.3742 1.3382h-3.2693v-3.413zm4.6434 8.4966c0 1.0059-.7903 1.2125-1.8412 1.2125h-2.7932v-3.413h3.2692c.8982 0 1.3741.5569 1.3741 1.3383v.8622z" fill="#fff" fill-rule="evenodd"/></svg>