<svg fill="none" height="72" viewBox="0 0 72 72" width="72" xmlns="http://www.w3.org/2000/svg"><path clip-rule="evenodd" d="m64.861 44.1348c-.0041.0161-.0082.0322-.0123.0484-3.4586 13.4325-18.9017 21.4598-31.8111 16.1755-3.4398-1.4207-6.5403-3.5222-9.088-6.0666-5.7914.5656-11.5511.1209-16.81129-1.4766-.7239-.1614-3.25752-2.4607-1.56844-1.9766 15.49043 4.6834 35.70813-1.4319 47.68333-13.5745-.0054-.123-.0116-.246-.0188-.3691-4.7281 2.959-10.1483 5.0307-15.1704 6.4005-9.5714 2.5413-19.5853 3.0657-29.11652.1613-.48259-.1613-2.21189-1.5732-1.12605-1.3311 3.13047.7176 6.29337 1.2277 9.45907 1.4938-1.5607-4.6762-1.8658-9.761-.5707-14.8457 2.083-8.191 8.2063-13.9645 15.5571-16.3664 2.5281-.912 5.2832-1.4077 8.2107-1.4077 14.0801 0 25.5224 11.477 25.5224 25.5996 0 2.6369-.3988 5.1658-1.139 7.5352zm-8.3718-5.4178c2.1687-2.3433 4.0382-4.9106 5.5256-7.6765.116.5224.2184 1.0725.3001 1.6464l.0016-.0012c.5709 4.4326-.2447 9.1734-2.5351 13.595-1.89 3.6312-4.7156 6.461-8.0436 8.417 3.0017-4.8978 4.658-10.3301 4.7514-15.9807zm3.4931-13.2103.0107-.0066c-2.0913-3.8083-5.473-6.9724-10.0612-8.8968-.0511-.0124-.1058-.0295-.1642-.0516-1.177-.4272-2.3806-.7556-3.5973-.9871 4.3233 3.3395 7.4862 8.5144 8.9861 13.5725.2172.7349.4073 1.4691.5708 2.202 1.597-1.4878 3.1522-3.1564 4.667-5.036-.2464-.5146-.4119-.7964-.4119-.7964zm-6.9716 16.564c-7.1675 6.1846-16.5447 10.3416-26.0554 11.838 1.4166 1.033 3.0365 1.9042 4.8356 2.5775 4.6714 1.689 9.7504 1.8245 14.4002.5463 3.5878-4.3642 6.0395-9.5328 6.8196-14.9618zm-15.5901-.4691c-5.6563 1.764-11.5233 2.4151-17.41 2.1864-1.5918-5.4463-.9801-11.6741 1.7665-17.0308 3.4516-6.607 9.9586-10.5475 16.9425-11.4246 6.7585 1.712 11.1894 8.8253 13.2598 15.055.377 1.1301.6684 2.2654.8787 3.4011-4.7724 3.7242-9.9048 6.0818-15.4375 7.8129z" fill="#fff" fill-rule="evenodd"/></svg>