<svg fill="none" height="72" viewBox="0 0 72 72" width="72" xmlns="http://www.w3.org/2000/svg"><path d="m46.2758 25.7165 12.0385-13.7165h-22.3143-24v24 24h24 24v-46.8916zm-17.5266 17.9115c0 1.0699-.8852 2.109-4.6337 2.109-4.7031 0-8.4593-2.9326-8.4593-9.5138 0-6.8659 4.2797-9.9448 9.8371-9.9448h.5696c1.347 0 1.8011.177 1.8011 1.0006 0 .6774-.177 1.1084-.6696 1.1084h-1.3779c-4.7799 0-7.574 2.8249-7.574 7.7973 0 4.7569 2.263 7.5433 5.9114 7.5433 1.8012 0 2.1938-.354 2.1938-1.2546v-5.7576c0-.431.354-.6465 1.2007-.6465s1.2008.2155 1.2008.6465zm7.2508-6.3195c-.7466 0-1.3085-.5927-1.3085-1.3162s.5696-1.3162 1.3085-1.3162c.7466 0 1.3085.5927 1.3085 1.3162s-.5619 1.3162-1.3085 1.3162zm3.1251-8.9211h-.6389c-3.4407 0-4.6799 1.3086-4.6799 4.4567v12.0693c0 .4234-.3541.6389-1.2085.6389s-1.2084-.2078-1.2084-.6389v-12.2848c0-4.6337 2.7633-6.3348 6.5965-6.3348 1.347 0 1.8088.177 1.8088.9929 0 .6697-.177 1.1007-.6696 1.1007zm5.4804 16.5183c0 .4234-.3541.6389-1.2085.6389-.8543 0-1.2084-.2078-1.2084-.6389v-17.9731c0-.4233.3541-.6388 1.2084-.6388.8544 0 1.2085.2155 1.2085.6388zm10.1219.7928c-.4772 0-.8313-.3387-1.1469-.6927l-7.4355-8.2669c-.3541-.3925-.4234-.608-.4234-.8236 0-.2155.0693-.431.4234-.8236l7.474-8.2899c.3464-.4003.6619-.6543 1.0853-.6543.6081 0 1.501.408 1.501.839 0 .2156-.1078.3541-.3618.6389l-6.5812 7.2816c-.3232.3541-.8082.8082-.8082 1.0006 0 .2002.331.4927.6466.8467l6.7428 7.4356c.2463.2848.3618.4772.3618.6157.0077.4388-.8698.8929-1.4779.8929z" fill="#fff"/></svg>