<svg fill="none" height="72" viewBox="0 0 73 72" width="73" xmlns="http://www.w3.org/2000/svg"><path clip-rule="evenodd" d="m27.1658 57.4249c-.3506-1.2992 2.9225-1.6665 2.9225-2.8676 0-.8332-1.2275-1.2745-2.2212-1.4216-.3506.6373-2.2208 1.3236-2.3378 2.4754-.0586.6864.5842 1.2991 1.6365 1.8138zm-15.8977-1.2992c3.9158.9314 7.832-3.774 11.7479-5.6367.5261.2693.9937.1224 1.3444.1471l-.3505.1713.5843 1.1274c.1756.3678.0584.6618-.2336.8089-.2925.1467-.5847.0487-.8183-.294l-.5261-1.2009-.5262.2693.6432 1.2009c.2921.5147.7597.7352 1.4024.4167.6432-.294.8183-.8578.5848-1.3969l-.5262-1.0785c.3506.0247.4092-.0733.7012-.0733.2925.0244.4091.4411.2341.8331.9933.1718 1.7535-1.0784 1.6365-1.4951 1.461.4904 1.578 1.9607 2.5713 3.4558.234.294.5262.7351.5262 1.4951 0 1.3971-2.63 1.6912-2.8055 2.7452 1.9872.8576 5.2603 1.348 8.4164 1.348s6.4292-.5391 8.4164-1.3969c-.2338-1.0051-2.8056-1.3236-2.8056-2.6961 0-.7598.351-1.2009.5262-1.4951.8183-1.1518.9939-2.2794 1.7534-2.99.1166.0246.8769.0246.9349.098.1756.294 1.1107.1713 1.8705-.0247l-.7598 2.0587.8769.3189c.6428.2204 1.2855-.1471 1.5195-.6865.1752-.6371-.0584-1.2744-.8181-1.5193l-.6432-.2451c.409-.1227.7602-.2696.8184-.3434 1.987.6374 4.0912 2.2796 6.1954 3.7499 2.3378 1.6178 5.3773 3.1616 6.4292 2.598-2.4548 1.2987-2.8055 2.3283-4.1498 2.3283-3.3313.0246-7.3639-5.5881-11.4554-5.6368.7598.49 1.9287 1.1027 1.9287 2.4263 0 1.0293-.9353 1.5684-1.4611 3.7985-.0586.368-.351 1.7158-.9939 2.1324-1.7534 1.2256-6.546 1.4463-8.1826 1.4463-1.6365 0-6.4292-.1718-8.1243-1.4463-.7011-.49-1.0519-2.1078-1.1689-2.4751-.4677-2.206-1.461-2.402-1.461-3.4314 0-1.3236 1.2273-1.9607 2.0456-2.4507-4.0912.0487-8.1243 5.5877-11.4557 5.5877-1.4611 0-1.9873-1.2745-4.442-2.549zm33.3148 1.2992c1.1103-.5147 1.6949-1.1274 1.6367-1.8138-.1172-1.1518-1.9872-1.8381-2.2798-2.4754-1.0519.1471-2.2208.5884-2.2208 1.4216-.0586 1.2011 3.2731 1.5684 2.8639 2.8676zm-22.0931-3.7254-.7597.5393-.3506-.4904.7012-.5147-.2336-.3187-.7014.5147-.2923-.4409.7601-.5393-.1756-.3187-1.2275.8331 1.2859 1.9116 1.2861-.8089zm-2.1038 1.9362-1.2275-1.9116-.4675.3187 1.2859 1.9116zm-1.929-.0491c-.3506-.5638-1.0519-.7351-1.6948-.3433l-.7016.466 1.2275 1.9607.8183-.4414c.7014-.4409.643-1.1762.3506-1.642zm37.4647.8332c.2336.1471.5255.2451.7597.3433l.2338-.3676c-.5843-.2451-1.2861-.6129-1.9288-1.0297l-.2922.3926c.2922.1467.5258.294.7597.4166l-.9937 1.4459c.1754.1224.2926.1717.4676.2204zm-2.6304.515 1.2275-1.8629-.4677-.2693-1.2273 1.838s.234.1958.4675.2942zm-2.5131-3.0147c-.3506.5392-.1752 1.2989.4089 1.6665.5848.3678 1.3443.2207 1.6949-.3186.3505-.5638.1756-1.2992-.409-1.6912-.5843-.3677-1.3441-.2204-1.6948.3433zm-.8765.6618s0-.3924.0581-.6371c.0584-.466-.0581-.6864-.0581-.6864s.4089.098.6427-.2694c.1756-.368 0-.7355-.2338-.8825l-.8767-.5391-1.1689 1.985.4092.2697.5255-.8331.0586.0487c.1756.098.234.3189.1756.6618 0 .2453-.0586.5146-.0586.5638zm-6.8384 6.6174.1752-2.5246-.526.1717-.1168 1.5685-.9353-1.3236-.6427.1225-.0584 2.5247.5255-.0982v-2.0096s.9354 1.3722 1.1693 1.7155c.1754-.0491.4092-.1469.4092-.1469zm-5.3771-.2942c0 .7109.6427 1.2502 1.3441 1.1763.7601-.0734 1.3442-.7105 1.3442-1.4212 0-.7109-.5841-1.25-1.3442-1.1764-.7598.0731-1.3441.7104-1.3441 1.4213zm-3.2145-1.2744v2.5487l.5257.0246v-1.6664l.7602 1.0293c0 .0245.7597-1.1031.7597-1.1031v1.7402h.5258l-.0582-2.5242h-.5262l-.7011 1.0538-.7016-1.0783zm-2.572.2451c.2922.0244.5848.0733.877.0978v-.4658c-.7598-.0733-1.4029-.1467-2.0457-.294v.466c.2336.0489.4676.0733.6428.1224l.0586 2.0832.5259.0733zm-1.5194 1.3478c-.4092-.0734-.7598-.1716-.9937-.2694l-.0584-.5638c.2923.0734.5845.1472.9353.2205v-.4658c-.4092-.0735-.7597-.1469-.9935-.2449v-.5638c.0582.0247.4091.0981.9935.2698v-.4904c-.5262-.0734-1.0519-.2451-1.5781-.3922l.1754 2.5733c.6428.1961.8763.245 1.5195.3923zm-12.683-4.2888c.4091-.2451.5261-.6864.2921-1.0542-.2335-.3675-.6427-.4902-1.1103-.2202l-.1751.1222.8183 1.2743zm33.5484-2.7208c-.2338.3188-.1752.7597.1756 1.005.409.245.7597.0736.9935-.2451.234-.3433.234-.7598-.1754-1.0291-.3507-.2453-.7597-.074-.9937.2692zm-1.695-1.4216c.1756.098.4091.1473.5261-.0487s.0584-.3433-.1751-.4904l-.1756-.098-.3506.5393zm-11.2802 8.0638c0 .4411.2342.7841.76.7352.4675-.0491.7601-.4412.7601-.8823s-.2926-.8087-.7601-.7353c-.526.0244-.76.4411-.76.8824zm1.4613-15.3917c-.0586.0491-.0586.1471-.0586.2204.0586.1227 0 .1227-.0584.3187-.0586.2451-.2338.3187-.2338.2698 0-.0247 0-.0738-.0586.0487-.0584.0493-.1169.098-.1753.0735-.0586 0-.117.098-.3506.1227-.117 0-.1756 0-.2922-.0489.0584-.2451.1166-.0738.1752-.2451 0-.0491.1754-.0491.234-.0247 0 .0247.1168.0247.2338-.0733.2339-.1472.1753-.098.1753-.2698-.0584-.1467.0586-.2694.0586-.3187.0582-.0489.1168-.1222.1752-.1713.0586-.0491.117-.0247.1756-.0247-.0002.0493-.0002.098-.0002.1227zm-1.6364-.3676c.1167-.0246.3505-.2942.2921-.2942 0-.0243-.117-.0489-.0584-.1227 0-.0733.117-.024.117 0 .0586-.0733-.0586-.098-.117-.1467-.0586-.0246-.1752-.0491-.1752.0247 0 0 .1166.024.1166.098-.0584.0978-.1166.0487-.1751.024-.0584-.0489-.0584.3187 0 .4169zm.3505-.6864h.0586s.1166.0493.1752.0493c-.0586.0242-.0586.122-.1752.0733-.0586-.0246-.0586-.0733-.0586-.1226zm-.117-.0491v-.0243c-.0586-.0244-.1751-.0491-.1751-.098 0 .0736-.0586.1469.0581.1714.0586.0246.0586 0 .117-.0491zm-.2919 1.6915c.0584-.0247.117.0487.1751.0241.0584-.0241.0584-.0241.0584-.0979 0 0 0 0 .0586-.1226.0584-.0978.117-.0978.117-.1714.0586-.098.0586-.2693.1752-.3186h.0586c-.0586.0491 0 .1224-.0586.1471 0 .098-.0582.1467-.0582.1713.1168.0247.2338 0 .409-.0491.1754-.098.1754-.1222.4091-.2693.0582-.0734.1752-.0734.3506-.098 0 .0733.1166.294.1752.294.1756 0 .2342-.0489.4091-.1227.117-.0733.117.1718-.1167.3433-.117.1471-.117 0-.234.098-.1172.0491-.1172.098-.1172.1472 0 .098-.1166.098 0 .2451.0586-.0247.1756-.0491.351-.1964 0-.0241.0582-.0241.0582-.0487.1169-.1472.1755.0733.2339-.1961 0-.0735 0-.0735.0586-.1224.0586-.0493.0586.1713.1752-.0493.0586-.1225-.0586-.1467 0-.294.0586-.1225-.1166-.0491-.1166-.098-.0586-.1225-.1756-.0734-.1756-.196 0 0 .2922.0246.4676.0246.2922 0 .5259-.0982.5259-.3433 0-.3433-.4673-.294-.9353-.2205-.4089.0487-1.0521.1714-1.0521 0 0-.1471.409-.2697.5846-.2697.3505 0 .4675.0493.7013.0493.409 0 .6432-.0982.7597-.0982.1756 0 .2926.0246.2926 0 0-.0736-.5259-.1716-.8181-.1716-.4092 0-.1172.098-.5262.098-.1755 0 0-.098 0-.098 0-.0243-.1755-.0242-.2337-.0242-.2926 0-.351.1222-.5262.1713-.0584.0245-.3506.1227-.3506.3187 0 .294.3506.2697.8186.2206.4675-.0733 1.1103-.196 1.1103.0245 0 .1226-.1756.2206-.3506.2206-.3506 0-.4092-.0493-.5846-.0493-.2923 0-.8183.098-1.2858.098-.0584 0-.1754-.0487-.2338-.0487-.0586 0-.0586.0487-.0586.0487h-.0584v-.2693s.0584-.0245.117-.0978v-.1718c.117.0738.2338-.0489.2338-.1226 0-.0734-.2338-.1223-.2924-.0734 0-.0489.0586-.0735.0586-.098 0 0-.117-.1471-.2338-.196-.117-.0491-.2926 0-.2926 0-.0583 0 0 .0489-.0583.1227 0-.098-.1752-.2205-.2338-.1718-.0586.0738-.0586.2205.0586.2451-.0586.0491-.0586.0734-.1172.1227 0 .0978.0586.1713.0586.1713s-.3506.2451-.2922.5147c0 .0736.0584.2205 0 .2205-.0586-.0243-.0586-.196-.1172-.196-.117-.0488-.175-.1468-.175-.1714-.0586-.0491-.2341-.1958-.2341-.3678 0-.0735.1169-.098.1169-.2206 0-.2205-.1755-.2447-.2921-.1714 0 0 .1166 0 .0582.0734 0 .0246.0584.098-.0582.1226-.0586 0 0-.1471-.1756-.1471-.117 0-.1754.0982-.1754.1718 0 .0244.0584-.0736.1168-.0247 0 .0491.0586.0491.0586.098 0 .0491-.0586.0738-.0586.0491-.1168 0-.2336.196-.0584.3187 0 .0246-.0584-.1471 0-.1225.117.0734.2926-.0733.234.098 0 .0245-.0584.0978.1168.1958.1169.0493-.0582.0247-.0582.0736 0 .0491.0582.1471.2337.1962.117.0243.0584.0489 0 .0489-.1171 0 .117.1716.2336.1958.1756.0247-.058.0491.1756.1227.117.0244.117-.098.117-.098.0586-.0247.0586.0244.0586.0733.0582.0491.0582.098.0582.1225 0 .0737 0 .0982-.2338.1717-.0586.0243-.3506.0734-.5261.098-.0584.0243-.2336.0734-.2922-.0246 0-.0245-.117-.1958-.2922-.1469-.0586.0244-.117.0735-.0586.1958 0 .0984 0-.0734.0586 0 .0586.0246.1168-.0243.1168.0984.0584.0241-.1168-.0247-.1754 0-.117.0487-.117.2205-.0584.294.117.0734 0-.098.117-.0733.0586.0242.1168-.0491.2336 0 .0586.0487-.0584.0487-.0584.1222.117.1471.2926.098.3506.0738.0584-.0493-.1752-.0247-.0582-.098 0-.0247-.0586-.1227 0-.1471.2337-.0734.0582.0733.1752.0733.1169 0 .1755-.098.2341-.098.1166-.0244-.0586.098 0 .0738.175-.0247.2336-.0491.2922-.1471.0584-.0493.0584.0733.1752.0489.0588-.0002.1174-.0738.176-.1225zm3.3314-5.4167c0 .0737-.0585 0-.0585.1471-.0584.1225.1169.0978.1169.1714 0 .0491 0 .0737-.1169.0737-.0584-.0246 0 0 0 .098-.117.1714-.2922.2205-.234.1958 0-.0244 0-.1713-.0582-.1224-.0584.0491-.0584.098-.117.1471-.0586 0-.117.0242-.2342.0242-.058.0247-.1752.0491-.2336 0-.0586-.0242 0 .0491-.2337.0247-.0584 0-.1756-.0247-.234-.0247.0584-.2447.117-.0733.234-.2447 0-.0737.2337-.0493.2337 0 .0584.0245.117.0734.2922 0 .2342-.1717.1756-.1473.117-.294-.0584-.0984.1172-.2451.2338-.2942.117-.0734.0584-.0489.1756 0 .0584.0491.1753.0491.1169.098zm-1.6952.1715c.4678-.2451.5262-.3677 1.5197-.3677.117 0 .2339.098.3505.196.117.0978.234.2205.409.2205.4092 0 .2926-.1227.5261-.1227.117.0246 0 .4171-.2337.4413-.1756.0247-.117-.098-.2926-.098-.1166 0-.1166 0-.1752.0738-.0584.0733-.1754.0242-.1754.196.0584 0 .234.0489.409 0 .0584 0 .0584.0242.117.0242.117.0247.2922.0491.4089-.0242.0586-.0491.0586-.1227.1754-.1227.0584 0-.0582.1227.0584.0489.117-.0242.117-.1467.117-.2447-.0584-.0493-.117-.098-.0584-.1226.0584-.0981.117.0733.117-.0491.0586-.3187-.117-.2941-.1756-.3676 0-.0491 0-.1471-.0584-.1471-.0582 0-.2337.1226-.4673.1471-.1756 0-.234-.1958-.526-.2942.117 0 .117.0491.5842.0491.2339 0 .5261-.098.5261-.3187 0-.49-1.1103-.2451-1.695-.2451-.5256.0246-.7598.0491-1.1103.0491-.2336 0-.3506-.0734-.3506-.1958 0-.2451.7599-.2207.9355-.196.4672.0242.5842.1467 1.2273.1467.4672 0 .7011-.1714.8183-.1714.2336 0 .2336.0736.2336.0489.0586-.0733-.2922-.196-.6427-.196-.4676 0-.409.1471-.8184.1471-.1753 0 .1754-.1224.1754-.1471 0-.0246-.0586-.0246-.1754-.0246-.2925 0-.6429.0493-.7015.0493-.2922-.0247-1.2273-.0736-1.2273.3433 0 .1713.117.3429.526.3429.2338 0 1.0519-.0242 1.1689-.0489.5845-.0245 1.4028-.1714 1.4028.0734 0 .1226-.1169.196-.2925.196-.409 0-.5258-.0243-.9935-.0243-.7012.0243-1.1103.0734-1.4029.0734-.0586 0-.4676-.0491-.8183-.0734-.0584 0-.0584.098-.1168.098s-.0584 0-.0584-.0246c0-.1225-.0586-.2451-.0586-.2451s.117-.0245.1754-.1225v-.196c.117.0737.234-.0487.2923-.1225-.0583-.0733-.2923-.1469-.3505-.0489 0-.098.0584-.1224.0584-.1224s-.1168-.1473-.2338-.196c-.1756-.0736-.3506-.0247-.3506-.0247v.1227c0-.098-.2339-.2205-.2921-.1716-.0586.0736-.0586.2203.0582.2449 0 .0491-.0582.098-.0582.1718-.0586.0733 0 .1713 0 .1713s-.3506.2451-.2926.5392c0 .0733.0584.2451 0 .2206-.0582 0-.0582-.196-.1168-.196-.117-.0737-.1756-.1717-.1756-.196-.117-.0244-.2922-.1962-.2922-.3678 0-.0733.1172-.098.1172-.2451 0-.2206-.1756-.2449-.2341-.196-.0586.0247.1169 0 .0585.0734-.0585.0493 0 .1226-.0585.1473-.0586 0-.0586-.1473-.2338-.1473-.0584 0-.1756.0737-.1756.1717.0586.0247.0586-.098.1172-.0244 0 .0491.0584.0491.0584.1224 0 .0247-.0584.0487-.0584.0487-.1172 0-.234.1964-.0586.3189 0 .0245-.0586-.1469 0-.1223.117.0734.2922-.098.2922.1223 0 0-.1166.0738.1171.1962.117.0489-.1171.0243-.1171.0734 0 .0246.1171.1473.2341.196.1166.0246.1166.0735 0 .0735-.0586 0 .1752.1716.2922.1716.1756.0489-.0586.0733.1756.1467.1166.0246.1166-.0978.1166-.1221.0586 0 .0586.0487.0586.1221.0586.0737.0586.1226 0 .1718-.0586.0246-.0586.0733-.2338.0733-.117 0-.409-.0733-.5846-.098-.1169 0-.2921-.0245-.2921-.1225 0-.0487-.0586-.2693-.234-.2693-.0582 0-.1168.0489-.1754.1713 0 .0734.0586-.0733.1172.0247 0 .0487.1166.0246.1166.1471 0 .0242-.1166-.0738-.2338-.0738-.1754 0-.1754.1718-.1754.2698.0584.1225.0584-.098.1754-.0493.0586.0736.1172.0247.1754.098.0584.0493-.0582.0493-.0582.1227 0 .1713.2336.1713.2922.1713.0584-.0242-.1172-.0489 0-.098.0584-.0242 0-.1467.0584-.1467.2337 0 0 .0978.1168.1467.1755.0491.2339-.0489.2925-.0489.1166.0489-.117.098 0 .1227.1752.0242.2336.0242.2922-.0491.0586-.0489.0586.098.1756.098.1166.0244.2338-.0489.4088-.1227.0583-.0242.1169.0491.1753.0491.0586-.0244.0586-.0491.0586-.098 0-.0244 0-.0244.117-.1715.0582-.098.0582-.098.1168-.1716.0584-.1225.0584-.294.1754-.3431h.0586c-.0586.0491 0 .098-.0586.1717 0 .0978-.0584.1225-.0584.1468.0586.0244.6429.098.8767-.049zm-1.3443-.5637c-.0586-.098-.0586-.4901 0-.4411 0 .0244.117.0733.117-.0247.0586-.0734-.0586-.098-.0586-.098 0-.0734.0586-.0489.1756-.0243.0582.0243.1168.0734.1168.147 0-.0247-.1168-.0736-.1752 0-.0586.0733.1166.1224.1166.1224.0586.0002-.1752.294-.2922.3187zm.3508-.7105c0-.0247 0-.0247.0584-.0247 0 .0247.117.0487.1756.0487-.0586.0493-.0586.1227-.1756.0984-.0584-.0491-.0584-.0737-.0584-.1224zm-.1752-.0738c0 .0491-.0586.0738-.1172.0491-.0584-.0491 0-.098-.0584-.1713.0584.0489.1756.0733.1756.098.0584 0 .0584.0242 0 .0242zm2.1622 3.6272c0 .0738-.058-.0242-.058.1471-.0586.1227.1166.0736.1166.1473 0 .0487 0 .0734-.1166.0487-.0586 0 0 .0247 0 .098-.0586.1718-.2342.2205-.2342.196v-.1222c-.1169.0489-.0583.098-.1751.1467-.0584 0-.117.0246-.1756.0246-.0584.0247-.1756.0487-.2336.0247-.0586-.0493 0 0-.2342 0-.0584 0-.117-.0247-.2338-.0493.0586-.2205.1168-.0487.2338-.2205 0-.0489.2342-.0246.2342.0247 0 .0244.1166.0733.2336 0 .2923-.1714.2338-.1471.1756-.294-.0584-.098.0582-.2451.1751-.2696.117-.0735.117-.0489.1756 0 .0586.0245.1752.0491.1166.0978zm-2.4546-.392c.117 0 .3508-.2694.2926-.294-.0586 0-.1756-.0245-.1172-.1225.0586-.0491.1172-.0246.1172.0247.0584-.0738 0-.1227-.1172-.1471-.0584-.0247-.117-.0489-.117.0244 0 0 .117.0247.0586.0734 0 .098-.117.0735-.1752.0246 0-.0248.0001.3431.0582.4165zm.3508-.6618v-.0246c.0582.0246.1752.0737.1752.0737-.0584.0247-.0584.098-.117.0736-.0582-.0247-.0582-.0736-.0582-.1227zm-.1756-.0735c0-.0245-.117-.0734-.1754-.0979.0584.0734-.0582.1225.0584.1714.0586.0245.117-.0246.117-.0735zm.3508.6619v-.2451s.0586-.0246.117-.1226v-.1467c.117.0489.2338-.0493.2338-.1473 0-.0734-.2338-.1225-.2922-.049 0-.0735.0584-.098.0584-.098s-.117-.1469-.234-.196c-.1166-.0489-.2922 0-.2922 0v.1225c0-.098-.2337-.2451-.2921-.1714-.0586.0489-.0586.196.0584.2207 0 .0487-.0584.0978-.0584.1467-.0586.098 0 .1718 0 .1718s-.3506.2202-.2924.5146c0 .0734.0586.2205 0 .196-.0584 0-.0584-.1715-.0584-.196-.1172-.0491-.1756-.1226-.2342-.1473-.058-.0487-.2336-.2204-.2336-.3673 0-.0738.117-.0984.117-.2207 0-.2205-.1756-.2451-.2341-.1718-.0584 0 .1171-.0244.0585.0493-.0585.0489 0 .1225-.0585.1225-.0584.0244-.0584-.1225-.1752-.1225-.117 0-.234.0734-.1756.1714 0 .0245.0586-.0734.0586-.0245.0586.0245.117.049.117.0979 0 .0246-.0584.0491-.117.0491-.117 0-.1754.196-.0586.3188.0586.0245-.0584-.1471.0586-.1226.117.0493.2338-.0978.2338.098 0 .0246-.1168.0737.1169.196.117.0491-.1169.0246-.1169.0737 0 .0245.1169.1467.2339.196.1172.0245.0586.0487 0 .0487-.0584 0 .1172.1472.2338.1718.1756.0245 0 .0734.1756.1225.117.0489.117-.098.1752-.098 0 0 0 .0489.0584.098 0 .098.0586.1226-.0584.1713-.0582.0247 0 .0736-.2338.0736-.0586 0-.3506-.0736-.5261-.098-.0584 0-.2922-.0243-.2922-.1227 0-.0487 0-.2447-.1754-.2447-.0582 0-.1754.0489-.1754.1714 0 .0733.0586-.098.1172.0246 0 .0245.0582.0245.0582.1225 0 .0489-.1168-.0491-.1754-.0491-.1754 0-.1754.1471-.1754.2451.0584.098.0584-.098.117-.0491.117.0491.1756 0 .2338.0978 0 .0493-.0582.0246-.0582.0984 0 .1713.2336.1713.2922.1713.0584-.0246-.1756-.0491-.0586-.098.0586-.0244 0-.1224.117-.1224.1752-.0247-.0584.0733.0586.1224.1751.0489.2337-.0244.2921-.0244.0586.0244-.117.0733 0 .0978.1752.0246.2338.0246.2922-.0245.0586-.0733.0586.0738.1172.0738.117.024.2922-.0493.409-.1227.0586-.0244.1167.0489.1751.0489.0586-.0242.0586-.0489.0586-.098 0-.0242 0-.0242.117-.1469.0586-.0978.0586-.0978.117-.1715.0582-.1227.0582-.2694.1168-.3187h.0584v.1471c-.0584.0978-.0584.1225-.0584.1471 0 .0243.4676.0734.6429-.0246.2338-.098.2338-.1225.4092-.2696.1752-.098.2922-.0489.7597-.098.0586-.0247.2338.098.3506.1958.1172.0738.2338.1964.4092.1964.3505 0 .2335-.1226.4089-.0984.1756 0 .0586.368-.1756.3924-.1751.0247-.0582-.0737-.2335-.0737-.1172 0-.1756 0-.1756.0493-.0582.0733-.1752.0244-.1752.1958.0586 0 .1752.0493.409 0 0 0 0 .0246.0586.0493.1165 0 .2921 0 .4089-.0493.0586-.0487.0586-.0978.1168-.0978.117 0-.0582.0978.117.0244.117-.0244.117-.1224.0584-.2204 0-.0491-.0584-.0734-.0584-.1227.0584-.0733.117.0736.1756-.0487.0584-.2942-.1756-.2942-.1756-.3433s0-.1225-.0586-.1225c-.0584 0-.2922.1225-.409.1225h-.0586c-.1751 0-.2335-.196-.4671-.2698.1166 0 .1166.0247.5257.0247.234 0 .526-.0734.526-.294 0-.4658-.7011-.3433-1.1101-.294-.4092.0242-.8183.098-1.1109.098-.2336 0-.2922-.0247-.2922-.1473 0-.1225.2342-.2205.4092-.1959.4675 0 .6431.0245.9353.0245.4676 0 .8183-.0736.9353-.0736.2336 0 .3506.1225.3506.0981 0-.0981-.4676-.3189-.7599-.3189-.4674 0-.4674.1471-.8768.1471-.1755 0 .1752-.098.1752-.1225 0 0-.0586-.0246-.1752-.0246-.2925 0-.4089.1224-.5261.1224-.2336 0-.6428.0982-.6428.3434 0 .1715.0582.294.4672.294.2342 0 .5262-.0245.6431-.0487.4678-.0738 1.3445-.2207 1.3445.0978 0 .098-.117.1715-.2926.1715-.4091 0-.4675-.0246-.9349-.0246-.7017.0246-.9355.0737-1.1693.0737-.0582 0-.2337-.0737-.5257-.0737-.0586 0-.0586.0982-.117.0982-.0578.0002-.0578.0002-.0578-.0243zm-.1752 4.7299c.1752-.0978.1168-.0242.2338-.122-.1756-.0738-.1756-.0493-.4676-.0247-.8183.0489-.7599-.0246-2.0456-.1717h-.175v-8.2595h7.5981c-.0586 3.1127-1.1691 5.7107-3.7992 7.8919-.9351.7598-1.87.6618-1.7531 1.9605 1.2855.2206 2.0457.3186 3.0976.3433.3505.0246.7011-.098.9353-.2447-.1756.49-.6432.6614-1.2273.6371-1.8706-.0244-4.8512-.5393-7.4231-1.8382v-.1471c.0586-.7598-.2922-1.2252-.8183-1.5198-.3506-.2205-.9354-.392-1.6951.0491-1.1689-1.0049-2.2208-3.0392-2.6883-5.2203 0 .0733-.117.1471-.1756.2205-.2922.3433-.8763.6126-1.2275.5393-.0582-.1471-.0582-.4167-.0582-.5147-.1754.2205-.9353.9558-1.695.6371.5843 2.6959 1.9288 5.3672 3.9158 6.985-.2336.8332.0584 1.4462.4092 1.7892.5261.4657 1.461.6862 2.1626.0737l.1165-.0737c2.1043 1.0538 4.442 1.5931 5.8449 1.6422 1.5197.0244 2.1628-.6371 2.9811-1.2745.9349-.6864 1.5781-1.3235 1.5781-1.5684.0584-.1472 0-.2205 0-.2205 2.5713-1.7649 4.7339-6.2743 4.6755-10.2695 0-.4657 0-.9313-.0586-1.3724-.1751-.1471-.2921-.3187-.4089-.5145-.1168-.1473-.1752-.3433-.2338-.5638h-.0586l-1.1687-.4413-.9939.2207-.0586-.4658.8183-.2207.6432-.7351c-.1756-.294-.3506-.6127-.5846-.9314-.0586-.1226-.0586-.196-.1166-.294l-.9939.4414.3506.8577-.3506.147s-.2337-.6861-.5843-1.2745l1.3441-.588c0-.1227-.0584-.2451 0-.3925 0-.1469.0586-.294.1755-.392.0586-.0733.1166-.1713.1752-.3186.0584-.098.117-.1961.1756-.2694-.8769-1.5931-2.1042-2.9413-3.5653-3.9218.5258-.1227 1.1103-.49 1.1103-1.3969 0-.5391-.2337-.8823-.5845-1.1274l.234-.588c-1.1687-.4658-3.3315-.8335-6.254-.8335-2.9224 0-5.0262.2697-6.1951.7351l.1752.6864c-.2921.2451-.5843.5881-.5843 1.1274 0 .7842.5257 1.2255 1.0519 1.4216-2.2212 1.4704-3.8573 3.75-4.7342 6.3967l.0584.0247c.1166.1713.2922.392.4672.6126 0-.1469 0-.294.0586-.4413.117-.196.2925-.392.2925-.392l.409.1473c-.0584 0-.0584.0243-.117.0734-.0584.0489-.1754.1471-.1754.2451-.0586.1467-.0586.294.117.3429.0584.0246.117 0 .1754-.0489.0582-.0247.1166-.0491.1166-.0734.0586-.0493.0586-.0739.117-.1226.1756-.1227.3506-.2453.6427-.1473.3506.1226.4676.5147.3506.8333-.0582.1471-.1166.2698-.1752.3433-.0584.0734-.117.098-.1754.1225l-.4091-.1714s0 0 .0586-.0246c0 0 .0584-.0247.0584-.0738.1169-.0489.1755-.1469.2339-.2693.0582-.1471.0582-.294-.117-.3432-.0584-.0246-.1169 0-.2339.0492 0 .0242-.058.0489-.058.0733-.0586.0493-.117.0736-.117.1227-.1756.1226-.4092.2451-.6432.1469-.058 0-.058-.0243-.058-.0243.1166.1714.2922.3433.3506.4413.5844.5881.5844 1.2252.5844 1.789 0 .5393.8181 1.25.6431 2.0589 0 .0242.0582.0733.1166.196 0-.2451-.0584-.5149-.0584-.76h7.5399v8.2594c-.7014.0491-1.0523.368-1.1105.5394.8765.3677 1.9286.6864 3.1561.9558 0-.5145.117-.9312.5257-1.1027.1168-.0495.2338-.0984.3508-.0742zm-2.6887-22.7196c2.3961 0 4.1498.2942 5.2601.6371.2341.0737.6431.368.6431.9315 0 .4414-.1754.7354-.4675.8823 0-.2449-.3506-.5147-.526-.5634-.8769-.2698-2.4548-.5638-4.9097-.5638-2.3962 0-4.0913.3187-5.0262.5881-.117.0493-.3505.2697-.3505.5148-.351-.1717-.6432-.4411-.6432-.8578 0-.5882.4676-.8822.7012-.9558 1.1107-.3433 2.9809-.613 5.3187-.613zm7.832 13.7252h-7.5981v-9.191c4.6172.1469 7.5397 4.9263 7.5981 9.191zm-8.0656-9.191v9.191h-7.5399c.117-5.2942 3.5071-9.0683 7.5399-9.191zm-8.1828 4.4605c-.5262-.294-.7012-.9311-.409-1.4704.2922-.5147.9353-.7107 1.4611-.4411.5261.294.7015.9313.4091 1.4704-.2922.5147-.9349.7109-1.4612.4411zm2.5719-2.2302-.2926.3433-1.5194-1.2502.2922-.3676zm.2336-2.9654.2922.294-.5258.4165 1.0519 1.1764-.3506.2941-1.0519-1.1763-.5261.4904s-.234-.2453-.234-.2697c.7015-.7109 1.3443-1.2254 1.3443-1.2254zm3.7992.196c.2922.0247.4676 0 .6428-.0733 0 0 .0586.0242 0 .0487l-.2336.4166c-.7015.0247-1.1689-.0489-1.5199-.196-.2921-.098-.5259-.3187-.6429-.6127-.1752-.5146.117-1.1029.7011-1.2989.5262-.196 1.1107.098 1.3445.6127.1172.4163.0002.8329-.292 1.1029zm2.4548-2.0589h.409v1.1765c0 .4904-.3506.8331-.9937.8091-.5844 0-.877-.3434-.877-.858v-1.152h.4676l-.0584 1.1275c0 .3187.234.5147.5262.5147.2921 0 .4675-.1716.4675-.5147zm1.4025 2.2794-.4676-.1473.5262-1.9116.4675.098zm3.1561-.7352.4089.2694-.0582 1.0538.9936-.294.3505.3433-1.3441 1.5198-.4089-.3433.8765-.9314-.9349.2207v-.0247-.9558l-.7599.9805-.409-.2698zm1.2859 3.5048c-.0586.0246-.4092.098-.4092.098l-.2922-.3921 2.1042-.4657.2922.4413-1.2273 1.8382-.2338-.4657s.2338-.2941.2338-.3187c-.1752-.3187-.2924-.4902-.4677-.7353zm3.2731 7.9405c-.3506 0-.5842-.2691-.5842-.6613v-.3187l-.7601.0242v-.4655l1.9874-.0245v.8332c0 .2697-.1756.6126-.6431.6126zm-1.2857 1.7649-.4092-.0733s.1756-.6865.234-1.2745c.2338.0243 2.0458.3189 2.0458.3189s-.1756.7594-.2926 1.3231l-.2923-.0489.1171-.8576-.4091-.0737-.1756.7842-.3506-.0733.1756-.7598-.5259-.098zm-1.2277 2.3285.1756-.4413 1.6366-.4414-1.2859-.4653.117-.4169 1.9286.6373-.2337.5634-1.5785.3924 1.2275.5147-.1752.3922zm.7017 2.5978-.3509-.2451s.0585-.0245.1169-.0491c.0586-.0243.1756-.098.2342-.1958.1166-.1227.1166-.2696-.0586-.3676-.0584-.0246-.117-.0246-.1756 0-.0584.0245-.1169.0487-.1751.0734 0 .0244-.0584.0491-.117.0733-.1756.098-.4092.1718-.6428 0-.2925-.1713-.2925-.5634-.1172-.8578.1172-.122.1754-.22.2924-.294.0584-.0489.117-.0733.117-.098l.3506.2451s0 0-.0586.0247l-.0584.024c-.1168.0493-.2338.1227-.2924.2451-.0584.1227-.117.2698 0 .3434.1172.0489.1756.0489.2338 0 .0586 0 .117-.0245.117-.0491.0586-.0243.1172-.0489.1756-.0734.1751-.098.3505-.1714.6427-.0246.2924.2206.2924.6126.117.8822-.117.1716-.3506.3433-.3506.3433zm-2.7473.7598-.2338-.2205s.4092-.3679.8769-.9317c.117.098 1.4025 1.3482 1.4611 1.3729-.4676.49-.9351.9067-.9351.9067l-.234-.2205.5845-.5882-.3505-.3187-.526.5636-.2342-.2449.5262-.5392-.3506-.3679zm-13.384-2.9658c-.5261.1962-1.1107-.098-1.2859-.6371-.2339-.5636.0586-1.152.5844-1.348.5261-.1714 1.1105.0982 1.3445.6373.175.5638-.1172 1.1518-.643 1.3478zm1.1103-.0489.2922.4167-.7011.4413.4675.784.7012-.4655.2337.3922-1.6366 1.1029-.2922-.4167.6428-.4167-.4674-.7842-.7015.4167-.2336-.4413zm4.442 5.5145c0 .294.2336.564.5844.564.2923 0 .5845-.2698.5845-.564 0-.3186-.2922-.5878-.5845-.5878-.3506 0-.5844.2692-.5844.5878zm3.2145.9314c0 .3186.2338.5635.5844.5635.2925 0 .5845-.2449.5845-.5635 0-.3187-.2922-.5636-.5845-.5636-.3506 0-.5844.2451-.5844.5636zm-5.0263-.2694c-.4678-.2694-.7598-.4167-1.1689-.7107 0-.1962.117-.4413.234-.7109-.1756-.1226-.2926-.2447-.4092-.3922-.1756-.1224-.2926-.2693-.351-.4167-.6427 1.1274-.2921 1.8383 0 2.1325.4676.3918 1.1691.5389 1.6951.098zm.1168-2.9409c-.117-.0984-.2338-.1718-.3506-.2207-.234-.098-.4092-.1962-.6431-.2449 1.0523-1.0787 1.6366-.8091 2.0456-.5884.4089.2204.6431.5637.5845 1.1762-.4089-.2447-.4089-.2693-.9353-.5878-.175-.0249-.409.1709-.7011.4656zm0 1.1271c-.643.9807-1.9288-1.0784-2.0456-1.4951.7597.1226 2.6303.588 2.0456 1.4951zm6.6047-22.8912s.5842-.0247 1.2273-.0493c.6428-.0245 1.2275.0493 1.1689.3433-.0586.3922-.6431.1716-1.2275 0-.5845-.1471-1.1687-.294-1.1687-.294zm-7.3645.4656s.5262-.196 1.1103-.4167c.5848-.2205 1.2275-.3431 1.2859-.0489 0 .392-.5845.392-1.2275.4167-.5843.0242-1.1687.0489-1.1687.0489zm3.6823-.5883s.5843-.098 1.1689-.2206c.6427-.1471 1.2859-.1718 1.2859.1226 0 .3923-.6432.2941-1.2859.2207-.5848-.0493-1.1689-.1227-1.1689-.1227zm2.2792 11.7153v-3.0393c-.1168-.0489-.2922-.1469-.3506-.196.0584 0 .2338-.1469.3506-.1714v-3.1127c-.3506.0734-.409-.3187-.0584-.4413-.1166-.0245-.2338-.294-.2338-.5391.2338.0739.4676.2206.4676.3186.1168-.2693.5257-.1469.4677.098v.0247c1.4025.2697 2.8636 1.3971 3.9157 2.9167.1169-.0738.3505-.0491.4675-.0738-.117.0491-.1754.2942-.2926.3924.7018 1.1518 1.2275 2.4997 1.3445 3.8723.3506-.0735.4676.3187.117.4413.0586.0245.2338.2943.2922.5392-.3506-.0489-.526-.196-.5842-.2941-.0586.2694-.4675.1716-.4091-.0733h-2.4546c0 .1469-.1172.294-.1172.3676-.0584-.0734-.1754-.2205-.234-.3676h-2.0452c0 .2207-.2927.3429-.4677.0733 0 .1227-.2924.2694-.526.2694.0584-.294.1756-.49.2922-.5145-.2922-.0984-.1166-.4904.0584-.4904zm5.9034.392v.1225h-.2925-5.4355v-7.4506c2.6299.1227 5.4355 3.5294 5.728 7.0341v.0734zm-.1172-.0489h-5.494v-7.1321c2.5717.2696 5.3187 3.6763 5.494 7.1321zm-5.0849-.1717c.117-.098.0586-.2447.117-.3187-.0584.0491-.2336 0-.3506.098v-2.6958c.1756 0 .2336-.1473.117-.3187.1752.1469.3506-.1964.409-.1964-.0584 0-.1756-.2201-.409-.1467.1166-.2207.0586-.3433-.117-.3678v-2.5978c.117.098.2922.0489.3506.098-.0584-.0737 0-.1717-.0584-.2698 1.1689.2941 2.2798 1.2012 3.2145 2.4265-.1166.0984-.0586.2696.0586.2942-.0586.0243-.1752.2694-.1752.3433.058-.0493.2922.0734.3506-.0246 0 .196.1166.2694.2922.2207.5845.98.9353 2.0831 1.0517 3.2349-.0582-.098-.1752-.0489-.2922-.098.0584.098 0 .2205.117.3187h-1.987c0-.1467-.1756-.2205-.3506-.1467.058-.0738 0-.2698-.1756-.5151-.1756.1964-.1756.368-.1756.4904-.2337-.0491-.3505 0-.3505.1714zm3.4487-2.5488c-.3506-.196-.6431-.3186-.6431-.7106.0585-.1227.1755-.3678.1169-.5638 0-.1227 0-.2207.0586-.1227.0584.196.117.4412.117.6865 0 .196.1166.3675.1752.392.117.1226-.1166-.2694.0586-.196.117.0493.1756.294.234.4413.1166.0489.4089.2451.4089.5391 0 .1469-.1169.2694-.2925.2694-.2336 0-.6428-.2449-.8182-.4411.117.1717.3506.3431.4676.5148.117.1469.1756.2448.2922.2448.0584 0 .117-.049.117-.0981 0-.0246 0-.0735.0586-.098 0 0 .0584.0247.0584.0491 0 .0736 0 .0243.1169.0489.1754.0738.2338.1472.1754.2452 0-.0493-.0586.0246 0 .098.0584.1226.117.196.0584.294-.0584.1226 0-.0734-.117 0-.0586.0493.1756.1717-.0586.4166-.0582.0491 0-.0242 0-.0735-.0582-.0734-.1751-.0491-.1166.0493 0 .1223-.0585.1467-.0585.1958 0 .1227.1751-.0244.1169.0736-.1169.0733-.1753.0978-.2339.0491-.1752-.0984-.117-.2452-.117-.3187-.0582.0487-.1166.2201-.2338.2201-.117 0-.117-.0487-.2336-.0243-.0586.0489.1166.1469 0 .098-.1756-.098-.1172-.3433.058-.3433.1756 0 .1172.0246.1756.0246.0586 0 0-.0491 0-.0491-.117 0-.0584-.1469-.2336-.1469-.0586 0-.0586.1223-.0586.0245 0-.1469.0586-.2449.2338-.2449.234 0 .0584.2449.234.294.0582.0246.1752-.2698.1752-.3431 0-.1227 0-.1716-.0586-.1716-.0584-.0246-.1166.0736-.2336.0736s-.6431-.196-.7013-.3433c-.117-.2448-.117-.2448-.1756-.4901 0-.0491 0-.1471-.0584-.1717-.0586-.0736-.2924-.2694-.4092-.294-.117 0-.117.0493-.2338 0-.2923-.1469-.3505-.3187-.4089-.4167-.117.0735-.117.1226-.1756.196 0 .0244-.117.0738-.117.0491 0-.0491-.1166-.0491-.1166 0 0 .0489 0 .1227-.0586.1714-.0586.0493-.0586.0737-.0586.0493-.0584-.0493-.0584-.074-.117-.0493-.1166.0493.0586.098-.0584.2451-.0582.098.0584.1471.117.1471-.0586.0733-.2337 0-.2921-.0738-.0586-.0982-.0586-.2449-.1172-.2206 0 .0246.0586.2206-.0584.2697-.1752.0489-.1752.1227-.1168.1469-.0584.0738-.234-.0489-.234-.2206 0-.196.3506-.2694.2926-.3187-.117 0-.0586-.0489-.117-.0733-.1172-.0247-.1172.0244-.1172.0733-.175 0-.117-.3674.1172-.3674.1752 0 .0584.1959.2336.2205.0586.0247.0586-.0491.2342-.1473.1165-.098.2921-.294.5257-.49.117-.1471.409-.3433.4676-.4905-.0586.0493-.2338.1227-.2924.2945-.0584.0733-.1754-.1473-.0584-.3187.2338-.6129.6427-.4904.5259-.7109 0 .098-.1753.0247-.2339 0-.0584-.0242-.1752-.0489-.2338 0-.0584.0491-.117.0491-.1754.0247v-.1471c0-.0489.1754-.0489.234-.0489.0584 0 .1168.0246.1752.0489 0 0 .0586-.0489.0586-.0736-.0586-.098-.0586-.196-.117-.2451-.0584-.0734-.0584.0246-.2338.0246 0 0-.117.0247-.117-.1226v-.1469c.0584-.0493 0-.1227.0584-.0738.0586.0247.234 0 .234 0 .0584-.098.1754-.0733.3505 0 .2338.1227.2924.1964.4092.1964.0586.0243.0586-.0737.0586-.0246.1166.2451-.1172.2206 0 .294.1166.098.2922.4411.2922.6127 0 .5638-.2342.6129-.2342.9069v.2693c0 .2698.1756.2451.2342.3678.0586.1467.1752.1227.3505.2694.1756.1224.409.3924.7012.3924.1172 0 .1756-.0738.1756-.1471.0006-.1215-.175-.3175-.4084-.44zm-3.0395-1.7891c-.1168.0489-.1168 0-.1752.0247-.1756.0244.0584.1226-.0586.098-.2336-.098-.1756-.3924.0586-.3924.0584 0 .0584 0 .0584.0246v-.0246-.049c-.117 0-.117-.1473-.1756-.1473-.0584 0-.0584.1227-.0584.0493-.0586-.1471 0-.294.1756-.294.1752 0 .117.2694.2336.2694.0586 0-.0584-.0736.0586-.2207 0-.0246 0-.0735-.0586-.0735 0 0-.0584.0489-.0584 0 .0584-.098.117-.1225.1756-.1225.1169 0 .1751.098.1751.2205 0 .1224-.1751.1713-.1167.2453.0585.1467 0 .098 0 .196.1167.196.2337.392.4091.5391.0584.0489.1752.1714.2336.1469-.117.2698 0 .3432 0 .4412-.2336 0-.4676-.098-.5842-.2694 0-.0493.1166 0 .1166-.0738-.0584-.0489-.2335-.0242-.3505-.196-.0584-.0489.1172-.0246.0586-.098 0-.0246-.0586-.0246-.1752-.1467-.0586-.0246.0582-.0246.0582-.0984-.0002-.0242-.0002.0002-.0002-.0487zm2.0456 2.2303c.0586 0 0 .1224 0 .1224 0 .0982-.2338 0-.2922.2696 0 .0491.117.1226.2922.1226.117 0 0 .0981 0 .2207 0 .1718-.1166.294-.1752.294 0 .0247.0586-.0489-.0586-.0242-.1754.0242-.0584.1713-.409.2204-.0585-.0493.0584-.0493 0-.0737-.1169-.0247-.1169.0737-.2923.1717-.117.0489-.2924.0245-.234 0 .117-.0244 0-.1962 0-.098-.0584.0489-.0584.196-.2922.196-.117 0-.117-.098-.1756-.0737-.1751 0-.0583.1471-.1165.098-.1756-.1714.0581-.3674.1751-.3674.1756 0 .1756.0489.2922 0-.0582 0 0-.0246-.1166-.0246-.1172 0-.1172-.1227-.1756-.1227-.117 0-.0586.1471-.0586.0738-.1165-.1473 0-.2944.117-.2944.2338 0 .1172.2206.4092.2206.2338 0 .2338-.0242.3506-.098.2339-.0733.4089-.1715.2921-.2449-.1751-.0491-.4673-.0738-.4673-.4169-.0584-.1713.1168-.294.3505-.3186.1168 0 .3506 0 .5258.0491.0004.0002.059.0489.059.0982zm2.7473 2.4509v-.1225.1225h-.2925zm-9.9946-6.495c0 .0247-.0584.0736-.1166.0489-.0584-.0489 0-.098-.0584-.1715.0584.0493.1752.0735.1752.098.0582.0002-.0002.0246-.0002.0246zm.1753.0489c.0584 0 .175.0491.175.0491-.0584.0493-.0584.1227-.1166.0736-.0584-.0243-.0584-.0736-.0584-.1227zm-.3505.6865c-.0586-.098-.0586-.4414 0-.4167 0 .0246.1166.0491.1166-.0247.0584-.0733-.0582-.098-.1166-.098.0584-.0735.1166-.0489.1752-.0246.117.0246.1755.0737.117.1471 0-.0247-.0586-.0736-.117 0-.0584.0733.0584.1226.117.1226.0583.0002-.1756.2696-.2922.2943zm-.5848.7106c.1756 0 .1756-.0733.234-.098.0582-.0242.0582-.098 0-.1467-.1756 0-.351-.1226-.234-.1226s.0584-.0491-.0584-.098c-.2921-.098-.1751-.1227-.1751-.1718 0-.196-.117.0247-.234-.0242-.1168-.0491 0 .098-.0586.098-.1166-.098-.1166-.2942 0-.3187 0 0 .0586-.0491.0586-.0738 0-.0489-.0586-.0489-.1168-.0733-.0584-.0489-.0584.0491-.0584.0491-.0584-.098 0-.1964.1166-.2207.117-.0491.1756.098.234.0736.0584-.0247 0-.098 0-.1227 0-.098-.0584-.0489-.0584-.0489.0584-.0984.2335-.1226.2921.098.0584.1227-.1165.1716-.0584.2449 0 .1227.117.1718.1754.1965 0 .0489.0586.1713.0586.1713.0584 0 0-.1471 0-.2206-.0586-.2941.2922-.5147.2922-.5147s-.0584-.0738 0-.1471c0-.0734.0584-.1227.0584-.1469-.117-.0493-.0584-.1718-.0584-.2451.0584-.0493.2922.0735.2922.1715v-.1226s.1756-.0489.2925 0c.1166.0737.2336.1962.2336.1962 0 .0242-.0584.0489-.0584.098.0584-.0493.2922 0 .2922.0733 0 .0736-.1166.1716-.2336.1227v.1713c-.0584.0738-.117.1227-.117.1227v.2205c0 .0246 0 .0246.0586.0246.0584 0 .117-.0493.1756-.0493h.8181c.6428 0 .5258.0247.8767.0247.1752 0 .2922-.1472.2922-.2452 0-.392-.6431-.2204-1.2275-.2204-.117 0-.5261-.0243-.5261-.3429 0-.2451.2922-.4905.4675-.5392.117-.0246.1754-.1964.4676-.1964.0584 0-.1754.1964-.0584.1718.0584 0 .117 0 .1754-.1227.2338-.2693.5257-.294.7013-.294.117 0 .1752.098.1752.098-.1752-.0246-.3506.098-.5257.2696-.0584.1224-.3506.196-.8768.2695-.1753.0247-.3505.1227-.3505.3187 0 .1714.2337.2449.6429.196.409-.0246 1.1103-.1471 1.1103.392 0 .1961-.1752.3925-.4092.3925-.2335 0-.4091-.0491-.4673-.0491.0582 0 .3506.2451.4091.2451.1752 0 .1166-.0738.1752-.0738.0584 0 .117.0984.117.1227.1752.196.117.1717.117.2942 0 .1715-.0584-.0491-.117.0735 0 .0489 0 .0734.0584.1227v.1714c-.117.0493-.117-.098-.1754-.0247v.0738c-.117.0733-.2337.0489-.3505.0489h-.117c-.1752.0491-.1752.0246-.2338.0246 0-.0491 0-.1226.0584-.2206.0584-.0491.0584-.0734.1166-.0734.1756 0 .0586.0489.234.0243.1751-.0243.1751-.1961.2335-.343-.1751-.0246-.1166.098-.4675.098-.1166 0-.1752-.0491-.2336-.098-.0584.0489-.117.098-.117.1467-.0584.1718 0 .1473 0 .2207-.1168.196-.1168 0-.1752.0493-.0584.0489-.0584.0734-.117.1227-.0584.0489-.1169.0733-.1755.0489-.058-.0247-.058.0246-.2336.0246h-.1756c0-.098 0-.1471.0586-.2206.0584-.0981.1756-.0734.234-.0247.0586.0246.1166.0246.2337-.0734.117-.1473 0-.098 0-.294 0-.1226.117-.196.234-.2697h-.0584c-.2339 0-.2925.1717-.5261.294-.3506.2451-.5846.1226-.5846.0984 0-.0247 0-.0738.0584-.1471v-.1471c.0586-.0243 0-.0243-.0584-.0243-.0582.0489-.0582.2203-.1166.3429-.0584.0493-.0584.0493-.1169.1473-.117.1227-.117.1472-.117.1472 0 .0733 0 .0733-.0582.098-.0584.0242-.117-.0738-.1756-.0493-.117.098-.2336.1471-.2922.1226-.117 0-.117-.1226-.1756-.0733-.0584.0489-.117.0489-.2921.0242-.0584 0 .1169-.0735 0-.098-.0584 0-.117.0738-.2922.0247-.0584-.0489.1168-.1227-.0584-.1227-.117 0-.0584.098-.117.1227-.117.0493.117.098.0584.098-.0584.0246-.2922 0-.2922-.1469 0-.0985.1166-.0738.0582-.1227-.0582-.0738-.1166-.0247-.2336-.0738-.0584-.0733-.0584.1227-.1169.0247 0-.098.0583-.2451.1753-.2451s.1752.0984.1752.0737c.0584-.1226-.0582-.1226-.0582-.1471-.0584-.098-.117.0493-.117-.0246 0-.1223.117-.1469.1752-.1469.1756 0 .1756.1713.234.2447 0 .0984.1752.0984.2338.1226.1166-.0006.3503.0734.4671.0976zm1.8703 4.7794c-.058.0734-.058 0-.1166.1469 0 .1225.1166.098.1166.1716 0 .0489 0 .098-.058.0735-.0586-.0246 0 .0245-.0586.0979-.0584.1715-.234.2206-.234.196 0-.0487.0584-.1714 0-.1225-.0586.0491-.0586.098-.1166.1471-.117.0245-.1756.0245-.234.0245-.0586.0242-.1752.0489-.2921.0242 0-.0242 0 0-.1756 0-.1166 0-.1752-.0242-.2922-.0242.117-.2696.117-.0978.2922-.2696 0-.0489.1756-.0246.2339.0245 0 .0246.1166.098.2336 0 .2922-.1714.234-.1714.117-.2941 0-.1226.1752-.2697.2338-.294.117-.0737.117-.0491.234 0 .0586.0245.1166.0491.1166.0982zm-1.6947.1714c-.2925.1471-.8183.098-.8767.0493 0-.0247 0-.0493.0584-.1473 0-.0491 0-.1225.0584-.1714h-.117c-.0584.0489-.0584.2203-.117.3431-.0586.0736-.0586.0736-.117.1716-.1166.1469-.1166.1469-.1166.1714-.0586.0493 0 .0493-.117.0735-.0583.0245-.0583-.0489-.1169-.0242-.1752.0978-.3506.122-.4092.122-.1166 0-.1166-.1467-.1752-.0978-.0586.0736-.117.0736-.2926.0491-.1165-.0246.0586-.098 0-.1226-.1165 0-.1751.098-.2921.0246-.117-.0246.0584-.1226-.117-.1226-.1166 0-.0582.1226-.1166.1473-.0586.0242.1166.0733.0584.0978-.0584 0-.2926 0-.2926-.1716 0-.098.117-.0735.0584-.1227-.117-.098-.1752-.0242-.2336-.098-.0586-.0487-.0586.1472-.117.0493 0-.098 0-.2697.1754-.2697.0582 0 .1752.0984.1752.0737.0584-.1226-.117-.1226-.117-.1471 0-.098-.0582.0734-.0582-.0246 0-.1223.1166-.1714.1752-.1714.1756 0 .1756.196.1756.2694 0 .0984.2336.1226.3506.1226.1751.0245.4677.0978.5261.0978.2336 0 .1752-.0487.2336-.0733.117-.0487.0584-.098.0584-.196-.0584-.0491-.0584-.098-.0584-.098-.0584.0246-.0584.1715-.1754.1226-.2338-.0737.0584-.098-.1752-.1471-.117-.0246-.3505-.1713-.234-.1713.0586 0 .117-.0493 0-.0738-.1751-.0489-.2335-.1469-.2335-.2205 0-.0242.1755 0 .0584-.0489-.234-.1226-.117-.196-.117-.196.0584-.2204-.117-.0737-.2336-.1224-.117-.0247 0 .1467-.0586.1224-.117-.1224-.0584-.3431.0586-.3186.0584 0 .1166-.0247.1166-.0738 0-.0489-.0582-.0489-.1166-.098 0-.0489-.0586.0491-.0586.0491 0-.098.0586-.196.1752-.196.1754 0 .117.1469.1754.1469.117-.0242.0584-.098.0584-.1469.0584-.0737-.0584-.0491-.0584-.0737.117-.0489.2921-.0243.2921.1964 0 .1222-.1751.1469-.1751.2447 0 .1717.2337.3186.2921.3677.0584.0489.0584.1227.2338.1961.0584 0 .0584.1958.117.1958 0 0-.0584-.1471-.0584-.2205-.0584-.3187.3506-.5391.3506-.5391s-.058-.098-.058-.1714c.058-.0733.058-.1226.1166-.1471-.1166-.0489-.1166-.196-.0586-.2694.0586-.0491.2925.0734.2925.1716v-.1227s.175-.0489.2922.0247c.1754.0493.2336.196.2336.196.0586.0247 0 .0491-.0582.098.0582-.0735.3506 0 .3506.0738 0 .0733-.117.196-.234.1467 0 .0493 0 .098-.0586.1717 0 .098-.1166.1223-.1166.1223s.0584.1226 0 .2451c0 .0247.0584.0247.0584.0247.0582 0 .0582-.0981.1168-.0981.3506 0 .7597.0734.8767.0734.2922 0 .6429-.0487 1.4029-.0734.4089 0 .5257.0247.9933.0247.1756 0 .2922-.0738.2922-.1964 0-.2447-.8182-.098-1.4611-.0734-.117 0-.8767.0491-1.1689.0491-.3506 0-.4676-.1717-.4676-.3431 0-.4166.9354-.3677 1.1689-.3431.0584 0 .4092-.0489.7598-.0489.0584 0 .1753.0243.1753.0243 0 .0246-.3505.1471-.1753.1471.4091 0 .3505-.1471.8183-.1471.2924 0 .6431.1226.6431.1964 0 0-.0584-.0493-.234-.0493-.1751 0-.3505.1713-.8767.1713-.5843 0-.7013-.1469-1.1691-.1469-.2335 0-.9349-.0246-.9349.196 0 .1227.0584.196.2922.196.3506 0 .6427-.0246 1.1689-.0489.5845 0 1.695-.2451 1.695.2449 0 .2205-.2921.3187-.5845.3187-.4676 0-.4092-.0489-.526-.0246.2922.0493.3506.2697.4674.2697h.0586c.1754 0 .4089-.1471.4675-.1471.0584 0 .0584.098.0584.1471s.2338.0491.1756.368c-.0584.122-.117-.0493-.1756.0487 0 .0246.0586.0733.0586.1471 0 .0733.0584.196-.0586.2207-.1753.0733 0-.0247-.1169-.0247-.1166 0-.1166.0489-.1752.098-.117.0487-.2926.0487-.4092.0245-.0584 0 0-.0245-.0584 0-.234.0242-.3506 0-.4092 0 0-.1958.117-.1471.1752-.2451 0-.0245.0584-.0491.1754-.0491.1754 0 .117.1226.2336.0984.2926-.0247.4092-.4171.234-.4171-.1754-.0243-.0584.0984-.4676.0984-.1754 0-.2922-.1227-.4091-.2207-.117-.098-.2922-.2204-.3506-.2204-1.0513-.0002-1.1097.1465-1.5189.3916zm-1.4028-.5638c-.0584-.1224-.0584-.49 0-.4411.0583.0246.1755.0737.1755-.0245.0584-.0737-.0586-.098-.117-.098 0-.0737.117-.0493.1754-.0246.1166.0246.1752.0735.1166.1469 0-.0245-.1166-.0734-.1166-.0245-.0584.098.0582.1469.1166.1469.0586.0004-.175.2943-.3505.3189zm.4091-.7105v-.0246c.0584 0 .1754.0491.234.0733-.117.0247-.0584.0984-.1754.0738-.0586-.0247-.0586-.0738-.0586-.1225zm-.1752-.0733c0 .0489-.0584.0733-.117.0489-.1169-.0247-.0584-.0736-.0584-.1716.0584.0489.117.0736.1754.098zm2.9806-1.4463c-.0584.0734-.0584 0-.117.1472 0 .1226.117.098.117.1469 0 .0737 0 .098-.0584.0737-.0586-.0246 0 .0243-.0586.098-.058.1469-.2336.2207-.2336.196.0586-.0493.0586-.1715 0-.1226-.0584.0493-.0584.098-.117.1226-.0586.0247-.1166.0247-.2338.0491-.0584 0-.117.0243-.1756 0-.0584-.0246-.0584.0243-.2335 0-.117 0-.1756 0-.2338-.0246.0582-.2451.1166-.0738.1752-.2451.0586-.0493.2337-.0247.2921.0246 0 .0247.0586.0734.1756 0 .2922-.1717.2338-.1473.1752-.294-.058-.0737.117-.2207.1756-.2698.117-.0487.117-.0487.2336.0247.0586.0244.117.0244.117.0733zm-2.5132-.3675c-.0582-.098-.0582-.4413 0-.4167.0586.0243.117.0734.1756-.0246 0-.0738-.117-.098-.117-.098 0-.0493.117-.0493.1754 0 .0584.0242.1169.0489.1169.1226 0-.0246-.1169-.0737-.1169 0-.0584.0734.0584.1223.0584.1223.0586 0-.1754.2697-.2924.2944zm.3509-.6865h.0582s.117.0493.1754.0493c-.0584.049-.0584.1223-.1754.0734-.0581-.0246-.0582-.0734-.0582-.1227zm-.1169-.0487c-.0584.0487-.0584.0734-.117.0487-.117-.0246-.0584-.098-.0584-.1713 0 .0489.117.0735.1754.098zm.3505.6614h.0586s0-.098.0584-.0735c.3506 0 .4676.0735.5258.0735.2339 0 .5261-.0489 1.2275-.0735.4091-.0245.5261 0 .9353 0 .117 0 .2921-.0491.2921-.1714 0-.2942-.8767-.1473-1.344-.098-.1756.0243-.4676.0489-.7018.0489-.3505 0-.4089-.1226-.4089-.294 0-.2451.4089-.3433.5845-.3433.117 0 .2922-.098.5844-.098.0586 0 .117 0 .117.0246 0 0-.2922.1225-.117.1225.3509 0 .4091-.1471.8183-.1471.3509 0 .8183.2206.8183.294 0 .0246-.1752-.0734-.3506-.0734-.1166 0-.5257.0734-.9349.0734-.3509 0-.5259-.0247-.9937-.0489-.1754 0-.4091.0735-.4091.196s.0585.1714.2921.1714c.3506 0 .7598-.0736 1.1107-.098.4092-.0489 1.1105-.1714 1.1105.294 0 .2206-.2922.2944-.5261.2944-.409 0-.3506-.0493-.526-.0247.2924.0489.3508.2453.526.2453.1756 0 .3505-.1226.4091-.1226.0584 0 .0584.098.0584.1226 0 .0734.2338.0487.1756.3674 0 .1227-.117-.0489-.117.0493-.0586.0243 0 .0487 0 .1223.0584.0737.0584.1717-.0586.2206-.117.0493 0-.0489-.0584-.0489-.117 0-.117.0736-.1752.1227-.1169.0489-.2339.0246-.4091.0246 0 0 0-.0246-.0584-.0246-.234.0246-.3506 0-.3506 0 0-.1718.0582-.1227.1168-.2207 0-.0246.117-.0491.1754-.0491.1752 0 .117.1225.2922.098.1755-.0489.3505-.392.1755-.4166-.1755 0-.0583.1226-.4675.1226-.1754 0-.2922-.1226-.3506-.2205-.1754-.0735-.2925-.196-.3505-.196-.4676.0493-.6432 0-.7602.098-.2337.1473-.2337.1714-.4087.2698-.1756.098-.6432.0734-.7016.0489.0584-.0489.0584-.0733.0584-.1473.0584-.0489 0-.1223.0584-.1467 0-.0247-.0584-.0247-.0584 0-.117.0246-.117.196-.1752.3187-.0584.0489-.0584.0489-.1169.1469-.0584.1471-.117.1471-.117.1717 0 .0489.0584.0489-.0584.0736-.0586.0246-.0586-.0736-.1168-.0247-.1754.0738-.351.1227-.4092.0984-.0584 0-.0584-.1226-.1754-.0737-.0584.0737-.117.0493-.2921.0246-.0584 0 .1166-.0735 0-.0982-.0584 0-.117.0736-.234.0247-.1166-.0247.0584-.1227-.1166-.1227-.117 0 0 .1227-.117.1469-.0584.0247.117.0738.0586.0738-.0586.0246-.2926.0246-.234-.1473 0-.098.0584-.0734 0-.1225-.0586-.0735-.1166-.0246-.1752-.0735-.1169-.0734-.117.1226-.117.0246-.0583-.0737.0001-.2451.117-.2451.1166 0 .2338.098.2338.0493 0-.0984-.117-.0737-.117-.1227 0-.098-.1166.049-.1166-.0246.0586-.1227.1166-.1471.1752-.1471.1754 0 .234.1958.234.2451 0 .098.1752.098.2922.1227.117.0246.4091.0733.5261.0733.175 0 .1166-.0487.2336-.0733.0584-.0247 0-.0734 0-.1471-.0586-.0736-.0586-.1227-.0586-.0981 0 0 0 .1225-.1166.0981-.234-.0736 0-.0981-.1754-.1227-.117-.0243-.3505-.1714-.2335-.1714.058 0 .058-.0491 0-.0733-.1756-.0493-.234-.1473-.234-.196 0-.0493.1754-.0247.0584-.0738-.2336-.0982-.117-.1715-.117-.196.0584-.1713-.1166-.0246-.2338-.0735-.0584-.0491 0 .1226-.0584.098-.117-.1227 0-.3187.117-.3187 0 .0246.0584 0 .0584-.0493 0-.0489-.0584-.0489-.0584-.098-.0586-.0489-.117.0493-.117.0246 0-.0735.0584-.1715.1756-.1715.1752 0 .1166.1469.1752.1469.117-.0247.0584-.098.0584-.1225.0584-.0735-.0584-.0735-.0584-.0735.0584-.0734.2921-.0247.2921.1713 0 .1227-.1751.1471-.1751.2452 0 .1471.2337.294.2921.3433 0 .0246.0584.1226.1756.1713.0584 0 .0584.1718.1166.196.0584 0 0-.1469 0-.2202-.0582-.2698.2926-.4904.2926-.4904s-.0584-.0981-.0584-.1961c.0584-.0493.0584-.0735.117-.1226-.117-.0247-.117-.1714-.0584-.2451.0584-.0489.2338.0737.2338.1717.0584-.0737 0-.1226.0584-.1226 0 0 .1169-.0491.2921 0 .117.0735.234.196.234.196 0 .0246-.0584.0491-.0584.098.0584-.0489.2922 0 .2922.0739 0 .0734-.117.1961-.2336.1223v.1716c-.0584.0735-.1756.098-.1756.098s.0566.1224.0566.2693zm-4.2664-1.0293c-.2923-.1714-.4675-.5145-.2923-.8578.2339-.3433.5845-.392.8767-.2207.2921.1714.4675.5147.2921.8578-.1751.3433-.5843.3922-.8765.2207zm5.0848-5.147c-.117-.3186 0-.6618.3505-.8087.3506-.1224.6428.098.7598.4167.1169.3187.0583.7351-.3506.8578-.3508.1227-.7014-.1471-.7597-.4658zm10.2866 3.9707s-.117-.2206-.3508-.49l.8767-.2451zm2.3964 6.7888v-.2447h.4673v.2447c0 .1227-.0582.2942-.2338.2942-.2335 0-.2335-.1224-.2335-.2942zm-17.9434 4.7796c-.2921.1222-.6429.0242-.7597-.3433-.117-.3433.0584-.6618.3506-.7598.3506-.1225.7011-.0247.8767.3188.1168.3672-.1168.6859-.4676.7843zm10.0529-29.3619h-1.2859v-1.3725c.3508.0242 1.2275.5393 1.2859 1.3725zm2.3964 3.3333c.0584.3187.7011 1.2498.5845 1.9605-.117.5884-.6431.956-.9353 1.6176 0 .0493-.0586.0246-.0586-.0247-.0584-.6617-.6427-1.1762-.5843-1.7891s.7599-1.3969.9937-1.7643zm-2.9807-1.4951c0-.2942.2337-.5149.5257-.5149.234 0 .5262.2207.5262.5149 0 .294-.2924.5147-.5262.5147-.292 0-.5257-.2207-.5257-.5147zm1.169-.5882c0-.2694.2922-.5147.5842-.5147.2924 0 .5261.2451.5261.5147 0 .294-.2339.5391-.5261.5391s-.5842-.2451-.5842-.5391zm1.3441-.3923c0-.2944.234-.5391.526-.5391.2923 0 .5261.2447.5261.5391 0 .2941-.2339.5392-.5261.5392-.2922.0002-.526-.2451-.526-.5392zm1.3443-.098c0-.2944.2338-.5148.5261-.5148.2922 0 .5258.2204.5258.5148 0 .2941-.2338.5392-.5258.5392-.2925.0002-.5261-.2451-.5261-.5392zm1.3445.4414c0-.2944.1752-.5392.5257-.5392.2926 0 .526.2448.526.5392 0 .2693-.2336.5144-.526.5144-.3507 0-.5257-.2451-.5257-.5144zm.9933.9311c0 .294.234.5391.5261.5391.2922 0 .526-.2451.526-.5391 0-.2696-.234-.5145-.526-.5145-.2921 0-.5261.2449-.5261.5145zm.5845 1.2254c0-.294.2338-.5392.5258-.5392.2925 0 .5259.2452.5259.5392 0 .2942-.2336.5144-.5259.5144-.292 0-.5258-.22-.5258-.5144zm.1166 1.348c0-.2942.2342-.5391.5262-.5391.2919 0 .5261.2449.5261.5391 0 .294-.2342.5147-.5261.5147-.292 0-.5262-.2205-.5262-.5147zm-8.942-6.1519c.4092-.3429.643-.7106.7014-1.1027-.5262.1227-1.1105.5881-1.1689.7841v-1.8872c.0584.3431.6429.6618 1.1689.7598 0-.4411-.234-.8822-.7014-1.3478h1.8703c-.409.4656-.6428.9067-.7012 1.3478.5258-.098 1.1103-.4167 1.1687-.7598v1.8872c-.0584-.196-.6429-.6616-1.1687-.7841.0584.3921.2922.7598.7012 1.1027zm8.65 7.4265c0-.2695.2922-.5144.5262-.5144.2922 0 .5841.2449.5841.5144 0 .2941-.2921.5394-.5841.5394-.2342-.0002-.5262-.2453-.5262-.5394zm-9.8192-4.142c0-.2942.2339-.5149.5261-.5149s.5262.2207.5262.5149c0 .294-.234.5147-.5262.5147s-.5261-.2207-.5261-.5147zm-1.2271-.5882c0-.2694.2338-.5147.5257-.5147.292 0 .5262.2451.5262.5147 0 .294-.2342.5391-.5262.5391-.2919 0-.5257-.2451-.5257-.5391zm-1.2859-.3923c0-.2944.2338-.5391.5257-.5391.2926 0 .5262.2447.5262.5391 0 .2941-.2336.5392-.5262.5392-.2919.0002-.5257-.2451-.5257-.5392zm-1.4029-.098c0-.2944.234-.5148.5262-.5148s.5261.2204.5261.5148c0 .2941-.2339.5392-.5261.5392-.292.0002-.5262-.2451-.5262-.5392zm-1.2858.4414c0-.2944.2339-.5392.5261-.5392s.5261.2448.5261.5392c0 .2693-.2339.5144-.5261.5144s-.5261-.2451-.5261-.5144zm-1.052.9311c0 .294.2336.5391.5262.5391.2922 0 .5258-.2451.5258-.5391 0-.2696-.2336-.5145-.5258-.5145-.2924 0-.5262.2449-.5262.5145zm-.5261 1.2254c0-.294.1756-.5392.4676-.5392.3505 0 .5847.2452.5847.5392 0 .2942-.234.5144-.5847.5144-.292 0-.4676-.22-.4676-.5144zm-.1752 1.348c0-.2942.2338-.5391.5258-.5391.2925 0 .5261.2449.5261.5391 0 .294-.2338.5147-.5261.5147-.292.0002-.5258-.2205-.5258-.5147zm.2922 1.2746c0-.2695.2336-.5144.5261-.5144.2922 0 .5258.2449.5258.5144 0 .2941-.2338.5394-.5258.5394-.2923-.0002-.5261-.2453-.5261-.5394zm4.7341-2.8186c.117.3186.9354 1.1275.9354 1.8137 0 .6127-.4092 1.0785-.5262 1.7647-.0584.0489-.1166.0489-.1166 0-.1756-.6371-.8183-1.0295-.8767-1.6422-.0586-.6373.4676-1.5198.5841-1.9362zm5.6695-2.451h-3.2147c.1754.6618.8183 1.1518 1.5781 1.1518.7599.0002 1.4028-.49 1.6366-1.1518zm-3.2731-.7106c.0584-.8334.9351-1.3483 1.2859-1.3725v1.3725zm1.6365 41.7387c.2341 0 .2925.1223.2925.2694 0 .294-.1755.2451-.1755.5393 0 .2451.1755.4411.4091.4411 1.1687 0 .526-1.7402 1.2859-1.7402.409 0 .3506.2451.5257.3922-.0582-.1222.1754-.3188.1754-.8087 0-.4413-.2921-.7351-.7597-.7351-.9937 0-.5845 1.2009-1.1103 1.2009-.234 0-.2926-.1224-.2926-.3678 0-.392.5846-.5637.5846-1.0784 0-.8087-.9353-1.2011-.9353-1.6178 0 .4167-.9349.8089-.9349 1.6178 0 .5147.6429.7842.6429 1.0784 0 .2452-.117.3678-.3506.3678-.5261 0-.117-1.2009-1.1105-1.2009-.4089 0-.7601.294-.7601.7351 0 .4901.2342.6865.1756.8087.1756-.1469.117-.3922.4675-.3922.7598 0 .2338 1.7402 1.3445 1.7402.2338-.0244.4092-.1958.4092-.4411 0-.294-.1754-.2451-.1754-.5393-.0002-.1469.0584-.2694.292-.2694zm-.7598 1.9361c0 .4413.3506.7111.7598.7111.4091 0 .7599-.2945.7599-.7111v-.1714c0-.0491.0584-.0733.1168-.0733.9939-.196.5847-1.6912 1.0523-1.6912.2338 0 .1166.4167.8179.4167-.2922-.3433.1756-.4413.1756-1.2502 0-.6125-.3506-1.3478-1.1689-1.2252v-1.5686h-.117c-.8767 0-2.1624-.2205-3.3899-.6129v2.2062c-.8181-.1227-1.1691.588-1.1691 1.2005 0 .8089.4676.9069.1754 1.2502.7014 0 .5848-.4167.8183-.4167.4676 0 .0584 1.5441 1.1103 1.6912 0 0 .0586.0489.0586.1226zm.7598-.5147c-.2336 0-.4092.2207-.4092.4413 0 .2451.1756.4167.4092.4167.2341 0 .4091-.196.4091-.4167 0-.2695-.1166-.4413-.4091-.4413zm-3.0392-17.2296 1.052 1.4458-.0584.3432-1.2275-1.691c.0586-.0246.117-.0737.2339-.098zm-.6431.2205 1.5781 2.1078-.058.3188-1.7537-2.3529c.117-.0248.1756-.0493.2336-.0737zm-.6427.1715 2.104 2.7943-.0584.3186-2.2794-3.088c.0584-.0002.1754-.0002.2338-.0249zm-.7012.0493 2.63 3.6026-.0584.3435-2.8639-3.8972v-.0487c.1168-.0002.1753-.0002.2923-.0002zm-.3507-.0246c-.234 1.9851.7597 3.7007 2.8635 4.6321l.0586-.1961c.3506.0492.8183.1227 1.4613.1961l-.0584.2695s-.2922-.0491-.2922.2451c0 .4169-.2924.7354-.7601.7354-.2922 0-.5844-.2207-.5844-.564v-.1714c-2.3378-.8822-3.7406-3.0147-3.5067-5.2694.2338.0489.526.098.8184.1227zm2.8635 4.8283c.0586-.0738.117-.0982.351-.0982.2335 0 .4673.2204.4089.4904 0 .1958-.1754.3676-.4089.3187-.117-.0247-.1756-.1227-.1756-.1961 0-.1471.117-.1715.1756-.1471.058.0247.1752 0 .1752-.098 0-.0733-.117-.2204-.3506-.2204-.117 0-.1756.0244-.2336.098 0-.0493.058-.0984.058-.1473zm.5262-5.1716c0-.1714.1753-.294.3505-.294l.7016.0487c.1751.0246.3505.1717.2921.3433v.0246c0 .1958-.117.294-.3505.294l-.7016-.0487c-.1752-.0246-.3505-.1471-.2921-.3433zm-4.7926-.6865c0-.1711.117-.294.2922-.294.1754 0 .2925.098.2925.2698.058-.098.1166-.196.1166-.2944 0 0 .7598.4659 1.5199.4659 1.6946 0 1.8702-.6126 2.7469-.6126.5258 0 .7598.3433.8184.8085l-.5262-.0487c0-.2945-.117-.368-.2922-.368-.3505 0-1.7534.9806-3.0979.9806-.9935 0-1.578-.2697-1.578-.2697.0584-.1223.117-.2447.1754-.392-.0584.0491-.117.0491-.1754.0491-.1752 0-.2922-.1227-.2922-.2945zm5.7279 1.2011-.117 4.2646-1.1689-.1468.6429-4.1424zm15.1959-10.3428c-.2921.0736-.5257.0736-1.2272.2207-.4092.0491-.5844.1227-.8184.1471 0 .1714-.0582.3187-.1752.4413.877-.2206 1.9287-.4413 4.0913-.5393.0586 0 0-.1227-.0584-.1227-.7014-.0244.117-1.0295 1.0517-1.5686-.9349.0246-1.5195.6862-1.8115 1.1029-.2341.3679-.117.1962-.8183.3186h-.234c0-.6371.3506-1.6664 1.4031-2.892 0-.098-.1756-.0246-.1172-.2694 0-.0737.0586-.1471.0586-.2204-.0586.0489-.1756.0733-.2338.098-.2925.098-.7015.0733-.9939-.1716l-.0584.0243c.234.3924-.0586.8335-.2923 1.0295-.2922.2207-.7596.3676-1.1101.1227l-.0586.0242c.2338.2942.1752.6865.0586.9558.5257.4412.9935.8823 1.344 1.2989zm-3.4482-.5637c-.117.1964-.1754.417-.1754.613-.0586.3676.117.8087.5259.9805-.2335.0489-.4089.0735-.6427.1222-.6431.1227-.7015-.392-1.2273.4167-.351.6373-.5261.5391.0582 1.4462.409.6861.7015 1.3232.9937 1.7892.6429 1.1518.5847 1.8136 1.5197 2.1078.4089.1226 1.403.6864 1.9872 1.0297.0584-.3433 0-.564-.0586-.7111-.2922-.1467-.7597-.2447-.9935-.4166-.117-.098.1172-.1225.2338-.098.5845.1226.9353.2451 1.3442.4413-.3505-.8332-.4675-.9805-.9353-1.4458-.2922-.2944-1.0517-.2451-1.1689-.098 0 .1713 0 .3429-.2336.2693-.1755-.0246-.4089-.3186.117-.6371 0-.0247 0-.5638-.8183-.6864-.5845-.6127-.9939-1.7892-1.0521-1.9118-.117-.1225.1756-.1225.1756-.3187-.0586-.1469.5841-.0242.7597 0l.5262.0738c.0582.098.1166.2206.1752.3429-.4092.3677-.2338.9315.0584 1.2257.2337.294.7599.5145 1.1688.2451.0586.0489.1172.0734.1756.1223-.234.5151.1752.9804.5842 1.1278.4091.1471.9939.098 1.2275-.3921.0585-.0491.0586-.0737.0586-.1226h.0583c.4676.6127 1.0519.9558 1.9287 1.1027.8183.1471 1.6948.9804 2.1042 1.3235.2921.2452.3505.4903.117.5883-.3508.1471.2337.8333.5257 1.446.117.1471.117-.0245.117-.1225 0-1.054-.0584-2.6715-.4676-3.3087-.0584-.0982-.0584-.2206.0586-.1226.4676.662.8184 1.7156.8768 2.4264.1751 2.1814-.6432 3.3088-.234 4.8037.0584.4413.3509.8578.6431 1.2502-.2342.098-.4675.294-.5847.4902-.2336.392-.2922 1.0538.2341 1.3723 0 .0246 0 .0246.0586.0491 0 .0489-.0586.0982-.0586.1469-.4675.0244-.7597.5391-.7597.9317-.0586.4654.1752 1.0783.7597 1.1518h.0586v.2451.0243c-.4675.3924-.2927 1.0296 0 1.3727.2922.3186.8182.5635 1.2855.294.0584.0487.117.0978.234.1224-.0584.5881.4676.9314.9351.9803.409.0491.9353-.1223 1.1105-.5636h.1752c.1756.3676.5261.5147.9355.5147-.2924 1.7645-1.1689 1.3969-1.6366 2.3529-.5262.9313-.8184 1.3478-1.0519 1.7156.7599.1226.6429.196 1.2274-1.3723.0582-.098.1752-.1226.1166-.0246-.0584.6126-.1166.8331-.2921 1.642 1.1103.1471 2.1626-.9314 2.1042-1.2254-.0586-.4166-.117-.6371-.1756-.6617-.4676-.0981-.2922-.5638-.1168-.6861.2338-.1471.5259-.098.8183.2694.3506-.098.5844-.49.5844-.9314 0-.6371 0-1.4215-.0584-2.2549.3505.3676.8767.2694 1.2272.0734.409-.2694.7598-.8085.4676-1.3232l-.0586-.0246c.117-.0734.1756-.1471.234-.2205.2338.1471.5257.2205.8183.2205.7599 0 1.3441-.6372 1.3441-1.397 0-.7597-.6428-1.3478-1.4025-1.3478-.7599.0243-1.4029.6372-1.3445 1.3969 0 .343.117.6616.3506.9069-.0586.0491-.1752.1225-.2338.1959-.2921-.2205-.8181-.1225-1.1103.0493-.117.098-.2339.2204-.3507.3429-.0582-1.4705-.1168-2.8183 0-3.235.0586-.3924-.2338-.6371-.5258-.3433-.0586.0493-.117.098-.234.1227-.5259.2204-1.4026-.6618-1.4612-1.6178-.0584-1.0294.9353-2.5734.8183-3.8232.117-.098.1752-.196.2338-.2696.3505.5636.6431 1.1763 1.0521 1.6667-.0584 1.3234.5257 2.1569 1.461 2.3776.5262.122 1.2275-.0247 1.5783-.4171-.8183.3924-1.2861-.588-1.5783-1.1027.0586 0 .117.0244.2338.0244.0584-.0244.117-.0244.1756-.0244.409.0244.3506.3676 1.0519.3676.9937 0 1.6365-.9314 1.5783-1.4952-.1754.4658-.8184.6129-1.2273.5392.5843-.4412.8765-1.1027.8765-1.8383-.0582-4.7054-5.3769-5.3425-5.4355-9.2643-.0584-.8578.7599-2.2303 1.8702-2.3772.5262-.0737.7598.3429.7598.3429-.7598.8578-.409 2.6472 1.1106 3.6274 1.5197.9558 3.3311.6129 3.5067 1.8136 0 .0246.0586.0246.0586 0-.1172-2.2056-2.8639-1.3478-3.2731-3.9703 0-.0738.0586-.2451.2338.1714.117.3679.9353 1.2991 1.812 1.2744.409 0 .4676-.1713.2922-.1471-.2338.0247-.3506-.0242-.4676-.0733-.2337-.1714-.5257-.6861-.5843-1.4459-.0584-1.6668-1.1105-1.9116-1.4615-1.8628-.2335.0246-.4089.0246-.5841.1473 0 0-.4676-.7598-1.3445-.7354-1.4611.0243-2.6883 1.7892-2.6883 3.2107.0586 4.4605 5.4353 5.0979 5.4939 9.2151 0 1.0295-.5844 1.8382-1.7535 1.8382-1.0519.0247-1.5194-1.3235-2.3962-2.6223l-.0582-.1224c-.0585-.2207-.1169-.3926-.2925-.5393-.0586 0-.0586-.0245-.0586-.0245 0-.0493.0586-.1227.0586-.1716.3505 0 .7015-.2942.8183-.5637.234-.4167.1756-1.0294-.2922-1.2989-.117-.0493-.1756-.0736-.2338-.0736-.0586-.0978-.0586-.1958-.1169-.2942.4675-.4167.1169-1.0047-.117-1.2745-.2924-.2693-.8769-.5393-1.2861-.1469-.1166-.0246-.1752-.0491-.2336-.0737.0584-.441-.2922-.7841-.6431-.9067-.3506-.1227-.8765-.0734-1.1103.3433h-.0586c-.409-.6373-.6428-1.1765-.6428-1.6422.0586-.4901.4092-1.1765.877-1.9118.1751.0735.2921.0493.4675-.2694.4672-.5884.8183-.9558 1.4025-1.4216.4089-.392-.0586-.5637-.3506-.7844.1756-.3187.2922-.6127.2922-.7842 0-.1718.1756-.1718.1756-.1225.0586.6127.4091 1.0538.8183.9804-.2922-.3433.0586-.7597.0586-1.8628 0-.7845-.1756-1.5198-.2342-1.8872 0-.2451.1172-.3187.1756-.0737.2338.5884.8769 1.2502 1.2859 1.0784-1.1107-.6371.4091-2.7694-1.1689-4.3871-.1754-.1223-.117-.2203 0-.147 0 0 .5259.2696.8765-.0733-.8765-.1227-1.1103-2.108-2.6298-2.402-.3505-.0489-.3505-.1227-.2923-.1227 0 0 .7013.0491.8765-.7107-.9349.4656-1.1689-.7351-2.7469-.6617.0583.5391-.2338.7844-.409.8331-.0586.0246-.0586-.0247-.0586-.0489.4676-1.4462-1.2275-2.598-1.5781-2.696 0-.0247 0 0 0 0 .117.5637.117 1.1029 0 1.7157 0 .0978 0 .4167-.0586.3185-.0582-.0491-.2921 0-.3505 0 .3505-.9069-.2924-.9069-.76-1.5685.234.9067-.4675 1.4952-.0585 1.8625-.2336.1227-.5258.294-.9935.4413-.409.1471-.7012.3187-.643.6865 0 .2447-.4092.2693-.8765.6127-.9939.588-1.1107.9558-1.6367 1.2991-.4675.3429-.0586 1.1271-.1171 1.2744-.0584.3433.1171.3676.2337.3187.4676-.1471 1.1689-.8822 1.6951-.9069.4675 0 .6431.2698.4089.3924-.3505.1714-.7597.3429-1.1687.6373-.5847.3674-.4677.5634-.1755.5147.117 0 .1755.0734.1755.196.117.2451.409.2207.5846 0 .1166-.098.2922-.0735.2922.1471 0 .245-.2922.4901-.117.956.1754-.417.7013-.1964.8767-.956.0586-.2942-.117-.4904.117-.8088.1752-.1961.3505.2451.1752.6373.3505-.0247.7017-.392.6431-.9805-.0584-.196.1752-.6371.6429-.4653.409.1469.4674.6371 1.4609.392.9355-.2451 1.2861-.9314 1.2861-1.2745 0-.49-.1168-.49-.1754-.8087-.117-.3924.4676.2447.5258.9314.0586 2.1078-2.3378 1.4458-4.1495 4.0438-.1169.1227-1.2274-.294-1.4028-.2204-.117.098-.0586.294-.117.49 0 .1471 0 .2944-.0582.4411-.2342-.2205-.5846-.2447-.8769-.1467-.409.1467-.8183.5391-.7016 1.0785l-.0582.0489c-.3509-.2941-.8767-.1474-1.1692.0733-.2336.2205-.4672.6864-.2922 1.1029l-.0586.0734c-.3506-.2205-.8181-.0243-1.0517.2206-.3506-.2693-.7013-.5147-.9353-.6618-.3506-.2693-.2338-.5146-.9935-.49-.8769 0-.4676.0736-1.1107.5884-.2922.1961-.7598.6372-1.1689.9312.2926.2694.5261.4656.8183.784.3506-.4166.9939-.784 1.1107-.8576.1166-.0491.5258-.0244.5841.0982.1172.1223.1756.343.4092.6127.1754.2437.4088.4644.5258.6847zm13.7351 10.5879c-.1756-.1714-.1756-.5393.0586-.8332.1752-.3186.5257-.4413.7013-.294.2336.1469.2336.5393 0 .8332-.2338.294-.5261.4413-.7599.294zm-1.3443 1.8136c-.1752-.1467-.1752-.5147 0-.8085.234-.3187.5845-.4413.7597-.294.234.1469.1756.5146 0 .8331-.2335.294-.5257.4413-.7597.2694zm-1.2275 1.7891c-.1752-.1714-.1752-.5147 0-.8087.1756-.2693.5262-.392.7017-.2449.2338.1716.2338.5145.0582.8089-.2337.294-.5259.392-.7599.2447zm3.4487-5.7103c-.2342-.1225-.2926-.4413-.117-.7352.117-.2697.409-.4166.6427-.294.1756.1223.234.4409.117.7352-.1752.294-.4677.4166-.6427.294zm-1.695-3.2107c-.0586.2206-.4092.294-.6432.196-.2924-.098-.4673-.3431-.4088-.5638.1166-.2201.4088-.294.7014-.1958.292.0978.4089.3429.3506.5636zm-10.7546-.8578c-.1752.1473-.4672.0735-.7014-.1471-.175-.2203-.2336-.5147-.0584-.6616.234-.1471.5262-.0738.7018.1469.2335.2205.2335.5145.058.6618zm7.657 14.2153c-.2927-.0247-.4675-.3433-.4091-.6865 0-.3675.2338-.6126.4671-.588.2926.0489.4678.3433.4678.7107-.0586.3431-.2924.6125-.5258.5638zm3.2145 2.6467c.0582-.2451-.2341-.49-.5845-.5391-.3506-.0489-.6429.1224-.7013.392-.0586.2698.2335.5151.5841.5638.3508.0246.6431-.1471.7017-.4167zm4.325-1.4949c.117.2451 0 .5638-.3505.7598-.2922.196-.6432.1471-.7598-.0734-.1171-.2207 0-.5638.2922-.7598s.6426-.1473.8181.0734zm.3506-1.544c-.0586-.5392.409-.9805.9353-.9805.5258 0 .9935.4167.9935.9313 0 .5394-.4091.9805-.9935.9805-.117 0-.3506-.0245-.4675-.1225.0584-.098.1751-.196.2335-.294l-.2921-.1958s-.0584.098-.2338.2694c-.117-.1716-.1754-.368-.1754-.5884zm-13.5013-22.1317s0 0 .0584-.0244c.2341-.0489.5261.0244.5847.2206v.2205c-.0586.1225-.1172.2451-.2924.3187 0 0-.0584.0244-.117.0491-.2339.098-.5845.0244-.6431-.1962v-.1714c.0002-.1718.1756-.3435.4094-.4169zm6.7215 24.4844c.2336-.1716.1752-.5147-.0586-.7841-.2337-.2697-.5845-.3433-.8183-.1717-.1756.1717-.1756.5391.0586.7842.2922.2698.6428.3431.8183.1716zm-8.6502-22.7199c-.1171-.1713-.0585-.4409.1756-.6373.2336-.1714.5256-.196.6426-.0243.117.1714.0586.4654-.1752.6372-.234.1962-.526.1962-.643.0244zm1.6363 7.5979c-.0584.2206-.3506.294-.7013.1717-.234-.098-.409-.3677-.3506-.5884.1166-.196.4676-.2694.7011-.1713.3508.1226.468.3673.3508.588zm10.7546.9558c-.1754.1473-.4676.098-.7015-.1227-.2338-.2447-.2922-.5634-.1752-.7105.1752-.1473.5257-.0735.7597.1471.2336.2207.2922.5394.117.6861zm-8.5334-9.1173c.4091.1469.7599 0 .8183-.2204.1168-.3678-.3506-.5147-.7015-.2451.0584-.0736.0584-.2453.117-.4414.1755-.588.5845-.3433.7013-.0489.117.2941.1756.1962.1756.1469-.0586-.1715-.1756-.4655-.1172-.6126.1756-.294.5847-.6127.8769-.7845 0 .3187.117.7598 0 1.1029-.0584.1471-.2922.3433-.4675.4412-.0586.0246-.0586.0735 0 .0735.0585 0 .1755-.0489.4091-.1714.1168-.0735.526-.0246.4674.3921 0 .196-.2922.4166-.3506.6126.1172-.4409-.4674-.6371-.6429-.294-.1168.2698.117.5638.4089.6865.5846.2447.9939.0489 1.2273-.3925-.1752-.1222-.5255.1474-.7011.1474l.5259-1.054c.0586.4657.1752.5146.2924.6126.0584-.196.0584-.3675-.0586-.9558.3506.1471.7597.3921 1.1107.5883-.2926.0735-.5261.2449-.7017.5146l.1172.0489c.2335.0491.3505-.098.5845-.1713l-.5845 1.0782c-.0586-.1471.0584-.6371-.2922-.6617-.2342.4166-.1172.8824.409 1.1271.3505.1718.6427.1718.8183-.0242.2336-.2945-.1756-.7111-.5846-.3925.117-.196.117-.5635.2922-.6613.5845-.2698.5845.392.6431.686.0584-.1227 0-.5638.1752-.8332.117-.196.5846-.392.8767-.5391.0586.3431.0586.8087-.0584 1.0538-.1167.1227-.5257.3433-.6427.4411-.1172.0491 0 .0491 0 .0247.5845-.1718.9353 0 .7011.4167-.0583.196-.2921.3673-.3505.4411.0584-.4658-.4678-.6129-.643-.3924-.1755.2451.0586.6128.3506.7842.4092.2453.8183.2207 1.1689-.1226-.1756-.0981-.4676-.1714-.6428-.0734l.5258-.7598c0 .2205.0586.49.1756.6127.1166-.2207.1752-.5147.1166-.8823l.7015.539c-.5259.5149-1.0521 1.0542-1.5195 1.6176-1.5198-.9801-3.8576-2.2057-6.7801-3.3088.0586-.3429.1756-.686.234-1.0293v-.3678c.0586-.2693.1168-.5391.0586-.784l.9349.2206c-.2922.1227-.5256.2941-.6428.5392.2338.0733.4676-.0247.5844-.1718l-.2338.9071c-.117-.196-.1754-.4167-.409-.4658v.0734c0 .4175.1756.7848.526.9319zm2.9807-11.0779c.117.1223.6431.4656.7017 1.3234.058.3677-.1171.6126-.4091.7844-.0584.0736-.4676.3187-.4676.4413-.1758-.7353.3504-1.5933.175-2.5491zm-2.455 2.8674c.9939-.196.9355.294 1.3445.3187.117-.0247.0584.0735 0 .0735-1.2275.098-1.3445.3678-1.695.6127-.0584.0491-.1166.0244-.0584-.0489.0584-.098.234-.2451.2925-.3924-.1169-.1221-.1755-.4901.1164-.5636zm-3.331 2.2058c.1165-.1471.2921-.196.4089-.196.8765.0489.3506.7353 0 .5393.0582-.0982 0-.2207-.0584-.2698-.117-.098-.4677.0979-.3505-.0735zm9.0591 14.6073c.2922.0247.6431-.0734.8767-.3674 0 .0243.0586.0243.0586.0489-.117.3678.117.7843.3506 1.0049.2336.196.6427.3923.9937.3189v.1221c-.234.0984-.4676.3188-.5846.5393-.0586.1226-.1169.2942-.1169.4413-.1166-.196-.2922-.4167-.4092-.5882-.4092-.5394-.8183-1.054-1.1689-1.5198zm-8.475-1.3236c-.0584-.0242-.117-.0735-.1752-.0735-.2926-.1227-.7015-.1227-.9937.098-.0586-.0245-.1172-.0487-.1172-.098.1756-.3433 0-.7841-.2336-1.0294-.1755-.2451-.5847-.4411-.9355-.3431-.0584-.0491-.0584-.0735-.1166-.1226 1.4027.1717 2.338.2204 4.0329.1717.2337 0 .4091 0 .5257-.0246.234-.0738.117.2206.4676.1469.3505-.0736.5261-.2205.5261-.3429.0584-.2452.7597-.3434 1.2859-1.5198-.0586.1471 0 .1713 0 .2206-.1756.4901-.5845 1.2499-.8183 1.397-.2342.1226-.2926.4166-.4676.5146-.4675.1473-.9355.1473-1.0521.0734-.1754-.1469-1.9288.2207-2.221-.0247.1176.3438.1758.6869.2926.9564zm6.8968 10.9559c0 .1958 0 .392-.117.588-.1752.2943-.5258.4412-.7598.2943-.1751-.1471-.2337-.5149-.0586-.8089.1756-.2451.4092-.3922.5846-.3433.1174.098.2338.1962.3508.2699zm3.7408 4.6812c-.0584-1.2011 0-2.402-.3506-2.9413-.2925-.4167-.5845.3679-1.8704-.5636-.3506-.2205-.7011-.4904-1.1103-.8087-.0586.1715-.117.3185-.1752.4411-.1756.294-.5261.564-.8769.564l-.0584.0731c.4676.1473.7012.6865.6428 1.1031 0 .3434-.2338.7598-.5844.9069v.1471c.3506-.0733.7599.1471.9935.3921.2926.2942.4678.8089.1756 1.2011.0586 0 .0586.0244.117.0491.1754-.368.7013-.5149 1.0519-.4658.4092.0491.8767.3431.9353.8329h.0582c.0584-.4653.4676-.7838.8767-.9067.0582 0 .1168-.0244.1752-.0244zm0 .4165c.2924-.0247.5843.098.6429.3186.0584.2694-.1753.5394-.5259.6374-.0584 0-.117.0244-.1754.0244-.2924.0247-.5261-.098-.5847-.3433-.058-.2451.1755-.5391.5261-.6127.0586-.0244.0586-.0244.117-.0244zm-13.9691-19.4112c-.2338-.0246-.409-.294-.3506-.5882 0-.3187.1756-.5389.4092-.5147.234.0247.409.2698.409.5882.0002.2941-.2334.5394-.4676.5147zm.4094-1.8869c-.1752-.1718-.1168-.4658.0584-.7109.1755-.2207.4675-.294.6431-.1469.1752.1713.1166.49-.0586.7107-.1756.2204-.4675.2938-.6429.1471zm-39.39316 13.2102c-.52615.5147-1.87062.2206-2.1042-1.1276.17558.4411.81832.5884 1.11029.3187-.29217-.4167-.46755-.9801-.46755-1.6665 0-3.7745 5.61092-6.3477 5.61092-9.681 0-1.4705-1.4611-1.9363-2.33803-.9805.81833.7598.40923 2.1569-.70113 3.1372-1.92862 1.7645-4.55898 1.6665-4.79256 3.2596 0 .1225-.05859.0734-.05859-.0247.11699-2.6715 3.27309-2.5735 3.50667-4.632 0-.0738-.05839-.098-.05839-.0493-.11659.3677-1.28568 1.7156-2.62996 1.6177 1.05191-.2451 1.34448-1.2257 1.63665-2.1815.35057-1.3234 1.46106-2.2303 2.33778-1.6418 1.34446-1.4216 3.91586-.8334 3.91586 1.4951 0 3.652-5.6109 6.2496-5.6109 9.7301 0 1.4458.70153 1.7645 1.51986 1.7645 1.98724 0 3.03914-3.1125 4.50024-4.7545.8767-1.0296 1.2858-1.6914 1.7534-2.6472.234-.5633.117-1.0047.7011-1.4458.7602-.6864 1.1693-.8824 1.5199-1.1029.3506.0491.9349-.0242 1.1103-.0489.7013-.2207.7597-.4904.9353-.5147.9935-.2451 1.2273-.9071 1.2857-1.2744 0-.0493 0-.1471.1754-.0493.1169.0735.1169.0493.3505.1226.234.0489.4092.1469.5848.2451-.117-.8335-1.0523-.4411-1.5199-2.2549 0-.1471-.2338-.3677-.2922-.1471-.1169.6127.5846 1.8872-.3505 3.0394-.0586.0735-.4676.294-.8769.392-.409.098-.7012.0733-.9936.1471.4674-.3924.9936-1.2749 1.1105-2.3287.0584-.6616-.0584-.882-.2921-.7351-.5262.196.4091 1.7402-1.3445 2.8187-.2922.1713-1.5195.8578-1.7534 1.2744-.0586-1.6177.7015-2.304 1.3442-3.7007.5844-1.2011.7598-1.9609.4676-1.9609-.6431.0247-.9937 3.3823-2.3378 3.3087.7011-.5637.2922-1.5931.2922-2.5733.0584-1.4459.7597-2.7205.2338-2.7205-.5258.196-.3506 3.3329-1.5197 3.6762.6427-1.0538-.6427-1.544.117-3.75.1752-.5634.8769-1.8625.5257-1.9605-.4091-.098-.3505.8821-.8181 1.6912-.1752.392-.5843.7351-.9935.5633.8767-.588.1752-2.4751.9935-3.3576 0-.0493 0-.1226-.0582-.1471-.7599-.3922-.8767-1.0538-1.1107-1.4214.4092-.2206.9353-.6373 1.5781-.5884.117-.0489 0-.3187-.1166-.392.0586-.1718.4092-.5147.5257-.5884.117.1962.1756.2697.351.3186 1.4609-1.1027 3.1559-1.8136 4.9092-2.1565-.1166-.2944-.0582-.3186.1753-.3186l.4678-.0247c.2336-.0244 0 .5147 0 .588.5843-.7597 1.4025-.7351 1.695-.8576.1166.5636.5258 1.0783.1752 2.0096 0 .0493 0 .0493.117.0738.8183.196.9935.7598 1.6366.49-.2339.7111-1.4614.3678-1.6366.3187-.117-.0247-.117.098 0 .1473 0 .0244.5262.3431.8183.5638 1.1689.9067 1.6949 2.3036 2.3378 2.0585-.5261.5637-1.1689.294-1.578.1226-.3506-.1713-.7012-.686-.8182-.6127-.5261.2207 1.2273 1.0538 1.5781 1.4705.7013.7598.6431 1.3478 1.1103 1.4216-.2922.3433-.8763.49-1.7531-.2942-.2925-.2694-.4091.0737-.0584.3188.409.2694.6428.4654.9934.8821.4675.4904.7015 1.2255.5847 2.0589.2336.4411.6427 1.0782.526 1.7156 0 .0489 0 .1713.0585.098.175-.098.7598-.392.935-.5392.4089-.3677 1.1689-.196 1.4028-.3433-.8769.8091-2.0456 2.1569-2.4547 2.9903-.4676.8578-1.1689 1.7891-1.1689 2.1815 0 .0489-.0584.0734-.117.0489-.4676-.2206-.8183-.7353-.8767-1.1518-.3506.0493-1.2859-1.3478-1.4025-.9804.1752.2942.1752.5391.2922.6129 0 .0489 1.578 1.7891 2.3961 2.7695.2922.343.9353 1.0292 1.3445 1.7152.2338.3187.0584.7843.2338 1.4216.0584.392.9353 1.0538.5845 1.7891.6428.5638.4674 1.4461-.6431 1.6669.4676-.3433.2926-1.1031-.0584-1.1764-.4672-.0738-.3506.294-.3506.4411-.1166.7353-.6429 1.054-1.344.8331.4091-.0978.7011-.7596.3505-1.0784-.117-.0978-.234.0489-.2925.1226-.4672.5638-1.4611.4167-1.6365-.2697.234.3924.9937.196.8767-.3187 0-.1714-.1166-.098-.2336-.1227-.1169-.0487-.2921-.1958-.2339-.6858.1754-1.1278.8183-.3433.9353-1.3236.0584-.4168-.1752-.5393-.3506-.5635-.2336 0-.6427.2693-.5261.686-.7012-.3433.1169-1.5198-.409-1.7402-.0586-.0243-.0586 0-.0586.0491.117.6371-.5843.5146-.7597 1.0051-.2922-.4905 0-1.6669-.4674-1.8138.1752.6862-.4675.8822-.4091 1.2744-.7016-.4902-.351-1.6175-1.3445-1.9853-.117-.0734-.5262-.5391-.9939-.7596-.2922-.1716-.3506.2205-.5844-.1716-.117-.196-.1755-.196.0584-.4657.1752-.196-.117-.5881 0-1.1272 0-.1713-.0584-.098-.117-.098-.2339.294-.2339.4654-.3505.6373-.117.2452 0 .4412-.117.5638-.117.196-.4092.2447-.3506.5391.117.9312.4092.9801.5262.7352.1166-.2207.6427-.2944.9935.1222.117.1718.4091.4169.8183.7109.2922.392.3506 1.0047.5845 1.25-.3505-.0489-.8767.2205-1.2858.2205-.9939-.0245-1.4615.3922-1.5197.466-.2924.5146.7013.49.4674.8822-.3506.4411-.8766 1.2009-.9935 1.4951-.3506-.6373-.234-1.4213.0585-2.1324-.7597.6373-.8183 1.6178-.7013 2.2795.3506 2.7205.6428 3.3823-.5261 4.975-.4676.6374-1.5779 2.0589-2.9224 2.5736-1.6364.6618-2.3961 1.1276-2.2793 2.3283.1165 1.5931.7597 3.7498 2.1038 3.6518.7601-.0734.1753-.7351 1.2858-.8085.5262-.0493.9353.0734 1.0523.4654 1.1689-.1958 1.4611 1.1524.4676 1.5931.3506-.5634 0-.7838-.2926-.8085-.2922 0-.4675.098-.5257.196-.0584.2205.1752.2451.2337.5638.0584.3187-.1755.956-.8767 1.1274.5262-.4656-.3505-.7354-.4091-.4903-.2336.5147-.5844.7845-1.4025.5638-.4676-.1471-.5845-.1717-.8767-.2696-.2922-.0733-.4092.1718-.7014.1472-.2925-.0247-.4091.5391 0 .49-1.1692.196-1.1692-.8823-.9353-1.3232.1752-.2697.5844-.3189.2922-.6864-.1752-.1714-.8183-.6127-1.11051.5393-.40916-.588-.35057-1.2258-.29217-1.6911.058-.466.29217-.8332.35057-1.1276 0-.3188-.0586-.6373-.11699-.8087-.0584-.1713-.11699-.0733-.11699-.0246-.29217.8824-.58435 1.2011-.93492 1.5689.29218-.6129-1.11069-1.7894.46736-3.9952.11699-.1471.17539-.3678 0-.7596-.11659-.2695.11699-.8578.40897-.662.87698.6374 1.75348-.5146 2.04558-.9066 1.1107-1.7892-.1751-3.1861 2.5134-8.4066 0-.0978-.0586-.1471-.117-.0736-.8765.9805-1.6366 3.0392-3.0393 4.191.1756 1.3478-.8767 1.8629-1.92864 1.9609-.93531.098-1.16889-.1471-1.75363-.0491.40916-.4413 1.28608-.3433 1.63665-1.1274h-.0584c-.23358-.0006-.46736-.0499-.64254-.1232zm14.20266-11.8624c.1752-.8333.8182-1.2258.8763-2.3038 0-1.2258-.7597-2.3529-1.227-2.8678-.1756-.1469-.4092-.1223-.4092.0737-.117 1.0292 1.1103 1.4212 1.0519 2.9903 0 .5145-.2336 1.2011-.6427 1.8382.1168.0978.2337.196.3507.2694zm-7.1309-9.4115c.117 0 .234-.0246.234-.0246 0-.0489-.409-1.1027-1.2275-1.1274-.2924 0-.5262.2207-.8767.3187.1752.2698.4675.8578.9353.9069.5257.0242.5843-.2451.7011-.2451.1174 0 .1754.1469.2338.1715zm5.2019-3.2349c-.1166.1222-.6427.4654-1.3441.7594-.1755.0737-.5261.1226-.4675.1226.4091.4167.5843.7354 1.2275.5147.5261-.2203.1169-.8578.6427-1.2745.117-.098.0584-.2206-.0586-.1222zm-5.0263 2.1322c-.117 0-.0584.1469.0584.1469.5257-.1226.8183.5885 1.4024.3678.5846-.2698.5262-.5638.5262-1.2011 0 0-.1756.1471-.2922.1714-.6429.2697-1.5196.515-1.6948.515zm5.6109 1.789c.1169 0 .8183.2206.9939-.6865.058-.1713-.1756-.2693-.117-.4653.0586-.098.117-.2207.117-.2944.058-.8085-.5262-.9801-.6432-1.1272.1756.6618 0 1.0538-.2922 1.4216.2922.4653.117.9558-.0583 1.0538-.0586 0-.0586.0735-.0002.098zm-.9354.3922c-.0584-.0489-.5257.3187-.8183-.4167-.1752-.5147.8183-.7107.4676-.8087-.1752-.0737-.2922-.2697-.1752-.3924.1752-.1713.4092 0 .5843.0493.0584.0247.2922-.098.1754-.196-.4091-.2451-.4675-.5149-.6431-.4167l-2.1622.9314c-.117.0733-.0586.2451-.117.5147 0 .1224 0 .3186.0584.3186.3506-.098.1752-.4659.4092-.49.3505-.0738.2921.294.2335.4167.0584.2693.7014-.3678.9353.2206.117.1714.117.2205.117.3187 0 .3429-.2925.392-.4675.4654 0 .0493 0 .0737.0584.2206.2337.6127.2337.7352.4673 1.0296.1754.196.2924.2206.5846.196.117 0 .2921-.0491.4089-.0491.0586-.0736.117-.1469.1756-.196.2922-.2205.409-.5638.1166-1.0785-.1162-.2208-.2918-.5884-.4088-.6375zm1.1109-3.5783c0 .0489.1752-.0493.1752-.0737.0584-.098-.0584-.343.1756-.343.1166-.0246.2336-.0246.3506-.0984.4091-.2202.4677-.882.1752-1.4458-.9352.294-1.4027.662-.8766 1.9609zm4.442 9.5584c0-.0736.1166 0 .1752.1471.117.3674-.117 1.1271-.4092 1.6418-.4675.6865-.7597.7845-.7597.6865-.0584-.8332-.0584-.4905-.117-1.397-.0586-.8824-.4091-1.5686-.4091-1.7402.117-.5391.9353.7844.8767 1.8875 0 .0489.0584.0734.117.0243.175-.1469.4675-.6373.5261-1.25zm-5.2603-3.4801c-.9939.3187-1.8704.1716-1.9876-.2697 0-.0734-.0582-.5881-.0582-.6618-.0584.0493-.1754.6618-.1754.7355-.0584.1469-.0584.3187 0 .5634.117.3924 1.3445.8822 1.9872.3924.117-.1227.0584-.4169.3506-.4904.234-.1469.4092.1226.5845.098.8184-.098 1.3445-1.2745 1.1105-1.6418-.0583-.2207-.2335-.3187-.3505-.3925-.0584-.0489-.5846-.4166-.6428-.4166.0582.0491.4092.4657.4092.5391.2336.368-.2342 1.0786-1.2275 1.5444zm-2.3968-1.5931c0-.0738-.0582-.1225-.0582-.098-.2339.0735-.7015-.1471-.8181-.6865-.5261-.0246-.8767-.196-1.2275-.7597 0 .1715-.2339.7106.3506 1.2257.0584.0489.1752.098.2922.1469.1756.098.117.294.234.3924.7599.5388 1.169-.1719 1.227-.2208zm1.2277-.6371c.409.6126.3508.5391.6432 1.1027.0584.098.1169.0491.0584-.0489-.2926-.5638-.2926-.9318-.3506-1.1765-.0586-.0247-.2342.098-.351.1227zm.2338-7.2059c-.0586.3187-.1756.5884-.3506.6127-.1755.0491-.4091 0-.4675-.2449-.0584-.1471 0-.2207.117-.2451.0582 0 .2337 0 .2337.098.1754-.4414-.1753-.7845-.5261-.3921-.1752-.1471.3506-.4904-.526-1.0538-.4089 1.0538.2922.9558.2338 1.1272-.3505-.1714-.5847.294-.2338.6373 0-.1226.0582-.2204.1752-.2204s.234.0491.234.1224c.1168.2207-.1754.4167-.4676.5147-.2339.0736-.7597.2698-1.0523-.294.351-.0734.7016.098.7598.196l-.4088-.9311c.058.2204-.117.4411-.4091.588-.0584-.294 0-.588.1751-.7841l-.4675.245-.643.2204c.2338.0493.5844.1473.7598.3924-.2922.1223-.6428.0734-.7598-.0737l.4092.9069c0-.1227.117-.5147.409-.6865.2337.5883-.0584.8823-.2922.9805-.1756.098-.5262.2698-.8183.0246-.117-.1471-.0584-.3433.0582-.4166.0586-.0247.1755-.0738.2339.0242.117-.4654-.3505-.7351-.5845-.2693-.175-.0982.234-.5147-.7011-.8825-.2336 1.1031.4675.8578.4675 1.054-.4091-.0735-.5847.4169-.117.6618 0-.1225.0584-.2207.1756-.2447.1166-.0493.2336.098.2922.1715.0584.1714 0 .3185-.1756.4412-.1752.098-.4092.1226-.7597-.1718.0584-.098.1756-.1223.2925-.098l-.5261-.5634c0 .098-.0584.2447-.117.3429-.0586-.0982-.117-.2206-.117-.5146l-.5259.4902c.4675.1713.9935.588 1.344.8578 0 .1469 0 .294.1756.49 1.2859-.7353 3.3899-1.6665 4.8512-2.0342 0-.2452-.0586-.4167-.2922-.4658.1166-.4409.2336-1.2745.5257-1.5931l-.7597.1473c.0586.098.117.196.1756.3433-.117-.0247-.234-.074-.234-.1227v.7598c.0584-.0743.1168-.1232.2338-.1477zm26.4181 20.3669-.7017-.2206.3506-.392c.0586.1471.1755.2693.2341.392.0584.0737.0584.1471.117.2206zm-32.7887-19.1904c0 .1471.1168.294.2922.294.1752 0 .2921-.1227.2921-.294 0-.1714-.1167-.2941-.2921-.2941s-.2922.1225-.2922.2941zm10.5786 33.6998c.8767.0737.7015-.049 1.1693.0737.4672.0487.4672-.3187.7597-.3187.409.0243.5844.7594.0584.9558 1.0519-.1471 1.1689-.9804.9933-1.3726-.117-.1714.0586-.1714.1756-.2205.1166-.0242.1166-.1223.3506-.0735.3505.0735.7013.3186.5843.6617.5262-.6124.4092-1.3969-.5257-1.6422-.234-.0733.2921-.6125-1.1107-.6371-1.1689 0-.5258.5391-1.3441.5149-.7015-.0983-1.5781-.6129-2.3378-1.1765-1.3445-1.0051-1.695-1.6913-1.7534-2.0587-.0584-.2451.1168-.5391.3506-.7842.5261-.4656 1.2274-.9807 1.461-1.2499.8183-1.0786.6432-2.5982-1.6948-3.7989-.8767-.4658-1.2859-.6862-1.6949-.7842-.1755.294-1.2273 2.0096-1.4028 2.3529.4091.3433.9353.7598 1.3444 1.642.2922.5884.2336 1.2743 0 1.7894-.1755.3675-.3505.6373-.7597.784-.2926.0491-.409.0737-.3506.4658.1168.4902.5844.3675.5844 1.0293.0584.5638.5261 1.5198 1.1689 2.108.1756.1714.1756.1958.234.3187 0-.3924.2921-.5151.0584-1.4951.2335.0978.4673.4166.4673.6124.234 1.152.5846 1.9852 1.695 1.9605-.6429-.392-.1751-1.2251.4092-.6126.409.4409.4674.9066 1.1101.9556zm13.2094-33.1116v-.8823s-.2922.1714-.5848.1714v2.8187h.5848v-1.4705c1.4024-.3186 2.3961-1.2744 3.7406-1.2744 1.4025 0 2.3962 1.1273 2.3962 2.3527 0 1.1518-.2926 1.5193-.2926 1.5193l.526.1963s.5261-.6374.5261-1.8138c0-1.593-1.1689-2.9901-2.6887-2.9901-1.8115 0-2.9218 1.0049-4.2076 1.3727zm-1.9289.6373v1.4705h.5844v-2.8187c-.3506 0-.5844-.1714-.5844-.1714v.8823c-1.2858-.3678-2.3961-1.3727-4.2082-1.3727-1.578 0-2.6885 1.3971-2.6885 2.9901 0 1.1764.4674 1.7402.4674 1.7402l.5261-.2451s-.2922-.2449-.2922-1.3967c0-1.2256 1.0519-2.3527 2.3964-2.3527 1.4027-.0002 2.3378.9556 3.799 1.2742zm1.2275 3.2107c.7014-.0739 1.2275-.6864 1.2275-.8335v2.108c0-.1471-.4677-.7844-1.2859-.8578.0584 1.0538.7598 1.4458 1.8115 1.5194.7013.0737 1.2275-.1223 1.2859-.7352.0585-.4413-.117-.7599-.409-.784-.2338 0-.4676.3429-.5262.588 0 .1471-.1166.2207-.2335.294.1751-.392-.2924-.9067-.1172-1.5193.0586-.3433.2923-.6618.6431-.6129.7597.098.8765 1.3482.8765 1.5689.0586.0735.117.098.1756.0242.1756-.5147.5846-1.3478 1.2273-1.2744.4676.0493.5845.3924.5261.809-.0585.7841-.6431.9558-.4675 1.4212-.1756-.1222-.2342-.294-.1756-.5145 0-.2206-.1166-.4655-.3506-.4902-.4089-.0733-.5261.2207-.5841.5638-.1172.686.7597 1.0538 1.4611 1.0538.5259 0 .9353-.098 1.2856-.6373-.0584-.0491-.0584-.098-.0584-.1718v-.0243c-.4091-.0493-1.0519.1223-1.2272.441l.7597-1.9118c-.117.3924.2922.8578.7013 1.0784.117-.7107-.2338-1.5931-.4091-1.6911l1.695.7598c-.2922.2453-.5843.588-.8769 1.0047.117.0493.2342.1964.2342.3433 0 .2451-.1756.4167-.4678.4167 0 0-.0584 0-.117-.0243-.1752.3676-.2922.7841-.4675 1.2007-1.2273-.49-3.4483-.8578-6.4292-.8578-2.9224 0-5.1432.3187-6.3706.8336-.1754-.4171-.2922-.8089-.4676-1.1765-.0584.0243-.117.0243-.1752.0243-.234 0-.4091-.1714-.4091-.4167 0-.1469.0582-.2694.1751-.3433-.2335-.4656-.5261-.8332-.7597-1.1027l1.6365-.6618c-.2336.098-.6428.9069-.4676 1.7156.4092-.196.8767-.8087.7597-1.2011l.7016 1.9609c-.1756-.392-.7602-.4905-1.2275-.392v.0242.1718c.2922.5146.7597.588 1.2275.588.7597 0 1.578-.4167 1.5194-1.0785-.0586-.4166-.2921-.6862-.5845-.6373-.2338.0247-.4092.4167-.3506.6618 0 .1471-.0586.2451-.1752.3433.0582-.4167-.5261-.8333-.5261-1.4218 0-.392.1752-.7351.5261-.7597.7598-.0981 1.1689 1.1031 1.2275 1.3235.0582.0736.1752.0736.1752 0 .0584-.5638.2922-1.446.9353-1.5196.409-.0489.5844.2452.6427.6618.1754.7845-.4091 1.0785-.1169 1.4705-.175-.0489-.2922-.2207-.2922-.4413 0-.2449-.1752-.4413-.4092-.4167-.4091.0491-.5257.3678-.4675.7107.0584.6129.5845.8335 1.2858.7598.9938-.0734 1.7535-.4656 1.7535-1.4951-.7014.0493-1.2859.6864-1.2859.8335v-2.108c0 .1717.4676.7844 1.2859.8335-.234-.8824-1.2275-1.4215-1.2859-1.4215h3.0975c-.0582.0006-1.1107.4417-1.2857 1.4221zm13.6178-8.3576c-.1754-.2207-.9937-1.3236-1.2857-1.6669-.1172-.196-.1752-.2447-.1172-.3187.1172-.0733.1756 0 .2928.1227l.9349.7598c.1754.1717.1754.2451.117.4411 0 .3189-.0586.368.0582.662zm.8769 1.0538c-.234-.2205-.6432-.6865-.6432-.9558-.0584-.294.117-.5147 0-.7352.4676.4901.7018.5638.6432 1.0047-.0584.3185 0 .4903 0 .6863zm.8769 1.0538c-.1756-.2205-.5845-.5881-.5845-.9067 0-.3678.0583-.6373 0-.9318.4089.4167.7011.5638.7011.9558 0 .4416-.1166.6133-.1166.8827zm1.1103 1.3478c-.1756-.2203-.7599-.7107-.7599-1.2254-.0584-.4166.0586-.6864 0-1.0538.2923.294.8183.6618.8769 1.1763 0 .4169-.2342.7602-.117 1.1029zm.9353 1.1522c-.2926-.2942-.7017-.6618-.7017-1.0051 0-.4411.1756-.9311.1172-1.3236.4675.4171.9353.7845.9353 1.3236-.0002.3922-.4094.7109-.3508 1.0051zm2.1038 23.4061s-.7597-1.0785-.8767-1.2745c-1.4027.3187-3.3313.098-4.0328 1.8136-.3506.8334-.7014 2.1078.1756 2.8923.4675.4411 1.4028 1.3969.7597 2.1815-.1752.294-.7014.4411-1.0519.5634-1.5781.5884-2.864.7844-3.7407.9069-.4675.0733-.8767.3433-1.4028.8824-.409.4407-1.0517 1.1272-1.4611 1.4703.8183.1224.7013.0487 1.1103-.4904.2926-.4656.2926-.4167.5261-.6861.0586-.0246.0586.0734.0586.1227-.2341.4654-.7013 1.1518-.7599 1.3232.5258.0244 1.4027.0737 2.0458-.4167.0584-.0247.1752-.294.1752-.5393 0-.0734.0584-.2694-.0586-.2941-.1752-.0246-.2338-.2206-.1752-.3922.0586-.1717.1752-.2695.4092-.2451.4675.0734.5841.6373.6425.6864.4678.1714 1.8121-.6617 5.6695-2.4266.2924-.1225.5847-.588.1172-.6618-.2338-.0489-.5848-.686-.4678-1.4947.1756-1.2502.8185-1.6178 1.9872-1.5935-.0586-.8328.234-1.9112.3506-2.3277zm-40.913-26.4942c0-.1717.1756-.2944.351-.2944.1166 0 .1752.0493.2336.1227 0-.0736.0584-.1469.0584-.2207.0584-.2206 0-.4413-.0584-.6618-.2922.1718-.4676.4905-.4676.5883l-.3505-.8087c.117.1469.4675.1715.7597.098-.117-.2207-.2922-.4167-.5844-.5391l.7598-.3187c-.0584.2694-.0584.5391 0 .7598.2921-.1227.4675-.3433.4091-.5149l.2922.8089c-.0584-.0738-.3506-.196-.6427-.1471.1168.2205.2921.3922.4673.5145.117.0246.1754.0493.234.0737-.0586-.0737 0-.1715.0584-.2451.1166-.1224.2922-.1224.4092 0 .1166.1227.1166.294 0 .4167-.0586.098-.1756.1226-.2926.0733 0 .0493.0584.1473.0584.2207-.0584.2942-.2922.5391-.5844.5391-.2339-.0246-.4091-.1469-.5261-.3673 0 .1224-.117.196-.2922.196-.1166.0002-.2922-.1469-.2922-.2939zm-1.9286 1.6912c0-.1471.117-.294.2922-.294.1754.0242.351.1469.351.3186-.0586.1714-.1756.294-.351.294-.1752-.0246-.2922-.1473-.2922-.3186zm.1756-.6865c0-.1713.1166-.294.2922-.294s.2922.1473.2922.294c0 .1718-.1166.2941-.2922.2941s-.2922-.1467-.2922-.2941zm.4676-.5393c0-.1713.1749-.294.3505-.294.1168 0 .2338.1471.2338.294 0 .1718-.117.294-.2922.294-.1755 0-.2921-.122-.2921-.294zm.6427-.294c0-.1714.1756-.294.2922-.294.1756 0 .2925.1226.2925.294s-.1169.294-.2925.294c-.1166 0-.2922-.1467-.2922-.294zm5.4357-.4898c.1166.1222.1166.3186 0 .4167-.0584.1224-.2926.1224-.4092.0242-.117-.1223-.117-.3187 0-.4407.1168-.0984.2922-.0984.4092-.0002zm-.234-.5884c-.117-.1227-.3506-.1227-.4677 0-.0584.1224-.0584.294 0 .4166.1169.098.3507.098.4677 0 .0584-.1226.0584-.2942 0-.4166zm-.6427-.4167c.1168.1224.1168.3186 0 .4167-.117.1224-.2926.1224-.4092.0246-.117-.1227-.117-.3189 0-.4413.1166-.098.2922-.1227.4092 0zm-.7018-.0247c.117.1225.117.294 0 .4167-.1165.1227-.2921.1227-.4091 0-.1166-.098-.1166-.294 0-.4167.0586-.1224.2927-.1224.4091 0zm-.7011.2207c-.1166-.0982-.2922-.0982-.4092 0-.1165.1224-.1165.3187 0 .4411.117.098.2926.098.4092-.0246.117-.0978.117-.2941 0-.4165zm29.3405 39.4839c.4675.1471.8769-.0247.9935-.4414.1755-.4166.0586-.8084-.4676-.9804l-.1752-.0734-.5261 1.4216zm-30.2172-38.0134.1754.5637-.4676.1961-.2924-.5392.0586.0247c.1752-.0002.3508-.0982.526-.2453z" fill="#fff" fill-rule="evenodd"/></svg>