<svg fill="none" height="72" viewBox="0 0 73 72" width="73" xmlns="http://www.w3.org/2000/svg"><path clip-rule="evenodd" d="m21.6467 15.395c-8.8663 3.3763-13.36154 9.0082-13.36154 16.7397 0 5.9506 2.90024 12.8552 7.75864 18.4699 5.1662 5.9713 11.6678 9.3954 17.8361 9.3954 4.0145 0 7.7918-1.3364 11.5464-4.0852 4.3418-3.2178 9.0328-8.3168 12.5495-13.6421 5.215-7.8966 6.3093-13.6353 6.3093-17.0594 0-4.2016-1.5938-7.436-4.7379-9.6128-3.4507-2.3898-8.8955-3.6005-16.1836-3.6005-4.7814 0-13.96.4409-21.7169 3.395zm1.4141 31.3156c-4.5517.4886-8.1004-2.5182-3.8939-4.83.9654.0742 1.7154.1773 3.2756.2374 3.0527.121 4.0163.814 4.2563 1.6542.3632 1.2644-.7068 2.627-3.638 2.9384zm-5.8711-15.6368c0-2.0248 1.2506-3.4025 3.3312-3.4025 2.377 0 3.6559 1.7651 3.6559 3.985 0 2.0265-1.1019 3.469-3.2334 3.469-2.4277 0-3.7537-1.7791-3.7537-4.0515zm9.8281 9.417c-1.4229-.6499-3.5421-.6977-7.005-.9688-1.6111-.1267-1.932-.5955-1.932-1.2352 0-.3863.1958-.8206.6174-1.161.2804-.2299.6445-.4071 1.0501-.484.4179.0488.7772.0648 1.1076.0648 3.8629 0 6.0451-2.3194 6.0451-5.084 0-1.1865-.4479-2.4188-1.2392-3.3097.8421 0 2.4249.0983 2.9209.1996v-1.9778c-.8893.2476-1.9799.2962-2.9209.2962-.7923 0-1.5339-.15-2.2312-.345-.8404-.2467-1.8274-.4437-2.6677-.4437-3.8837 0-6.2805 2.3719-6.2805 5.4405 0 2.1148 1.3692 3.9887 3.352 4.7296-1.4877.694-2.281 1.6788-2.281 2.8155 0 1.1113.7874 2.2648 2.3261 2.6784-2.2321.9698-4.3126 2.7216-2.7618 4.7606 2.2781 2.9964 10.3191 2.6775 12.8222-.4399 1.9601-2.4432.6287-4.8262-.9221-5.5361zm9.3235-7.2891c-1.9779-.9874-3.8628-1.8803-3.8628-3.4559 0-1.3346 1.4351-1.9291 2.9246-1.9291 1.5359 0 2.97.544 4.1622 1.4837v-2.2228c-1.2392-.6911-2.6763-1.0354-4.1141-1.0354-2.6734 0-5.6461 1.3319-5.6461 4.3939 0 2.5209 2.2283 3.6051 4.3089 4.5926 1.8829.8863 3.6181 1.6779 3.6181 3.3078 0 1.6244-1.7353 1.9714-3.1232 1.9714-1.2864 0-3.3171-.5421-4.9517-1.4284v2.2696c1.5857.6443 3.1206.9886 4.8549.9886 2.7759 0 6.093-1.1377 6.093-4.4464 0-2.2697-2.1794-3.4503-4.2638-4.4896zm20.2781 7.9943c-.8422 0-2.0007-.2176-3.8328-2.1936-2.3799-2.6166-5.136-5.9506-5.136-5.9506l4.2137-3.9502c2.4749-2.3193 3.1695-2.4657 3.368-2.5172h-3.9136c-.7933 1.0372-1.6855 1.8268-1.6855 1.8268l-4.5075 4.1988v-13.234l-3.4206.8872c.4479.5947.5967 1.5822.5967 3.8031v13.6784c0 2.7619-.1488 3.0594-.4461 3.85h3.6662c-.2475-.6425-.3962-1.0881-.3962-3.85v-3.953s2.0327 2.4206 4.5583 5.434c1.5837 1.87 2.8749 2.7131 4.4087 2.7131 1.1885 0 2.2801-.2953 3.0207-.8431-.1477.0534-.3453.1003-.494.1003z" fill="#fff" fill-rule="evenodd"/></svg>