<svg xmlns="http://www.w3.org/2000/svg" width="100%" height="100%" viewBox="0 0 64 64" fill="none" preserveAspectRatio="xMidYMid meet" aria-hidden="true" role="img">
<path opacity="0.4" d="M32 54.5919C34.8307 57.1255 38.5688 58.6661 42.6667 58.6661C51.5033 58.6661 58.6667 51.5026 58.6667 42.666C58.6667 35.2876 53.6723 29.0756 46.8795 27.2266" stroke="#fff" stroke-width="4" stroke-linecap="round" stroke-linejoin="round"></path>
<path d="M17.1205 27.2269C10.3278 29.076 5.33334 35.288 5.33334 42.6664C5.33334 51.5029 12.4968 58.6664 21.3334 58.6664C30.1699 58.6664 37.3334 51.5029 37.3334 42.6664C37.3334 40.5851 36.936 38.5965 36.2128 36.7725M48.0001 21.333C48.0001 30.1696 40.8366 37.333 32 37.333C23.1635 37.333 16 30.1696 16 21.333C16 12.4965 23.1635 5.33301 32 5.33301C40.8366 5.33301 48.0001 12.4965 48.0001 21.333Z" stroke="#fff" stroke-width="4" stroke-linecap="round" stroke-linejoin="round"></path>
</svg>