<svg xmlns="http://www.w3.org/2000/svg" width="100%" height="100%" viewBox="0 0 64 64" fill="none" preserveAspectRatio="xMidYMid meet" aria-hidden="true" role="img">
<path opacity="0.4" d="M47.3209 42.6664C49.4299 39.6426 50.6667 35.9656 50.6667 31.9997C50.6667 30.6266 50.5185 29.2882 50.2371 27.9997M16.6792 42.6664C14.5702 39.6429 13.3334 35.9656 13.3334 31.9997C13.3334 21.6904 21.6908 13.333 32.0001 13.333C33.1257 13.333 34.2281 13.4327 35.299 13.6236" stroke="#fff" stroke-width="4" stroke-linecap="round" stroke-linejoin="round"></path>
<path d="M43.9998 19.9997L31.9998 31.9997M58.6667 31.9997C58.6667 46.7272 46.7275 58.6664 32 58.6664C17.2724 58.6664 5.33334 46.7272 5.33334 31.9997C5.33334 17.2721 17.2724 5.33301 32 5.33301C46.7275 5.33301 58.6667 17.2721 58.6667 31.9997ZM34.6667 31.9997C34.6667 33.4725 33.4728 34.6664 32 34.6664C30.5272 34.6664 29.3334 33.4725 29.3334 31.9997C29.3334 30.5269 30.5272 29.333 32 29.333C33.4728 29.333 34.6667 30.5269 34.6667 31.9997Z" stroke="#fff" stroke-width="4" stroke-linecap="round" stroke-linejoin="round"></path>
</svg>