<svg xmlns="http://www.w3.org/2000/svg" width="100%" height="100%" viewBox="0 0 64 64" fill="none" preserveAspectRatio="xMidYMid meet" aria-hidden="true" role="img">
<path opacity="0.4" d="M20.9831 41.2265L18.6667 58.6665L30.9024 51.3252C31.3016 51.0857 31.5011 50.966 31.7142 50.9193C31.9024 50.8777 32.0976 50.8777 32.2859 50.9193C32.499 50.966 32.6984 51.0857 33.0976 51.3252L45.3334 58.6665L43.0185 41.2188" stroke="#fff" stroke-width="5.33334" stroke-linecap="round" stroke-linejoin="round"></path>
<path d="M43.8025 11.33C44.2142 12.3261 45.0049 13.1178 46.0001 13.5311L49.4905 14.977C50.4867 15.3896 51.2779 16.181 51.6907 17.1771C52.1033 18.1733 52.1033 19.2925 51.6907 20.2886L50.2459 23.7766C49.8331 24.7732 49.8326 25.8936 50.2473 26.8896L51.6894 30.3765C51.8939 30.8701 51.9993 31.3989 51.9993 31.933C51.9995 32.4669 51.8942 32.996 51.6899 33.4893C51.4857 33.9826 51.1859 34.4312 50.8083 34.8088C50.4305 35.1864 49.9822 35.4858 49.4886 35.6901L46.0009 37.1346C45.0049 37.5466 44.2131 38.337 43.7998 39.3325L42.3539 42.8232C41.9414 43.8192 41.1499 44.6107 40.1539 45.0232C39.1577 45.436 38.0384 45.436 37.0424 45.0232L33.5547 43.5784C32.5584 43.1669 31.4398 43.1677 30.4443 43.5808L26.9539 45.0245C25.9583 45.4363 24.8401 45.436 23.8448 45.0237C22.8495 44.6112 22.0585 43.8208 21.6457 42.8258L20.1995 39.3341C19.7876 38.3381 18.9971 37.5464 18.0017 37.133L14.5114 35.6872C13.5157 35.2749 12.7245 34.484 12.3118 33.4882C11.899 32.4928 11.8985 31.3741 12.3102 30.3781L13.755 26.8901C14.1665 25.894 14.1657 24.7751 13.7526 23.7796L12.31 20.2866C12.1054 19.7932 12.0001 19.2644 12 18.7303C11.9999 18.1962 12.1051 17.6673 12.3095 17.1739C12.5138 16.6805 12.8135 16.2321 13.1912 15.8545C13.5689 15.4769 14.0173 15.1774 14.5107 14.9732L17.9986 13.5285C18.9938 13.117 19.785 12.3274 20.1986 11.3331L21.6444 7.84263C22.057 6.8465 22.8484 6.05508 23.8445 5.64247C24.8406 5.22985 25.9598 5.22985 26.9558 5.64247L30.4438 7.08724C31.4398 7.49882 32.5587 7.49799 33.5542 7.0849L37.0459 5.64471C38.0419 5.23231 39.1608 5.23241 40.1569 5.64492C41.1526 6.05746 41.9441 6.84866 42.3566 7.84452L43.8027 11.3361L43.8025 11.33Z" stroke="#fff" stroke-width="4" stroke-linecap="round" stroke-linejoin="round"></path>
</svg>