<svg xmlns="http://www.w3.org/2000/svg" width="100%" height="100%" viewBox="0 0 64 64" fill="none" preserveAspectRatio="xMidYMid meet" aria-hidden="true" role="img">
<path opacity="0.4" d="M24 5.33301V10.6663M40.0001 5.33301V10.6663M24 53.3331V58.6664M40.0001 53.3331V58.6664M53.3334 23.9997H58.6667M53.3334 37.333H58.6667M5.33334 23.9997H10.6667M5.33334 37.333H10.6667M23.4667 53.3331H40.5334C45.0139 53.3331 47.2539 53.3331 48.9654 52.4611C50.4707 51.6941 51.6945 50.4704 52.4614 48.9651C53.3334 47.2536 53.3334 45.0136 53.3334 40.5331V23.4664C53.3334 18.9859 53.3334 16.7457 52.4614 15.0344C51.6945 13.5291 50.4707 12.3053 48.9654 11.5383C47.2539 10.6663 45.0139 10.6663 40.5334 10.6663H23.4667C18.9863 10.6663 16.7461 10.6663 15.0348 11.5383C13.5295 12.3053 12.3056 13.5291 11.5386 15.0344C10.6667 16.7457 10.6667 18.9859 10.6667 23.4664V40.5331C10.6667 45.0136 10.6667 47.2536 11.5386 48.9651C12.3056 50.4704 13.5295 51.6941 15.0348 52.4611C16.7461 53.3331 18.9863 53.3331 23.4667 53.3331Z" stroke="#fff" stroke-width="5.33334" stroke-linecap="round" stroke-linejoin="round"></path>
<path d="M24 28.2667C24 26.7731 24 26.0265 24.2907 25.456C24.5464 24.9543 24.9543 24.5463 25.4561 24.2906C26.0265 24 26.7731 24 28.2667 24H35.7334C37.227 24 37.9736 24 38.544 24.2906C39.0459 24.5463 39.4536 24.9543 39.7094 25.456C40 26.0265 40 26.7731 40 28.2667V35.7333C40 37.2269 40 37.9736 39.7094 38.544C39.4536 39.0459 39.0459 39.4536 38.544 39.7094C37.9736 40 37.227 40 35.7334 40H28.2667C26.7731 40 26.0265 40 25.4561 39.7094C24.9543 39.4536 24.5464 39.0459 24.2907 38.544C24 37.9736 24 37.2269 24 35.7333V28.2667Z" stroke="#fff" stroke-width="5.33334" stroke-linecap="round" stroke-linejoin="round"></path>
</svg>