<svg xmlns="http://www.w3.org/2000/svg" width="100%" height="100%" viewBox="0 0 64 64" fill="none" preserveAspectRatio="xMidYMid meet" aria-hidden="true" role="img">
<path opacity="0.4" d="M5.33334 39.9997L7.20399 21.2933C7.27489 20.5841 7.31036 20.2295 7.36476 19.9252C8.00593 16.3384 10.9899 13.638 14.6227 13.3568C14.9309 13.333 15.2872 13.333 16 13.333M58.6667 39.9997L56.7961 21.2933C56.7251 20.5841 56.6897 20.2295 56.6353 19.9252C55.9942 16.3384 53.0102 13.638 49.3774 13.3568C49.0691 13.333 48.7129 13.333 48.0001 13.333" stroke="#fff" stroke-width="4" stroke-linecap="round" stroke-linejoin="round"></path>
<path d="M26.6667 38.7588C29.956 36.8578 34.0435 36.8578 37.3331 38.7588M23.5425 32.4572C27.708 36.6228 27.708 43.3764 23.5425 47.542C19.3769 51.7076 12.6231 51.7076 8.45753 47.542C4.29195 43.3764 4.29195 36.6228 8.45753 32.4572C12.6231 28.2916 19.3769 28.2916 23.5425 32.4572ZM55.5425 32.4572C59.7082 36.6228 59.7082 43.3764 55.5425 47.542C51.3769 51.7076 44.6233 51.7076 40.4577 47.542C36.2921 43.3764 36.2921 36.6228 40.4577 32.4572C44.6233 28.2916 51.3769 28.2916 55.5425 32.4572Z" stroke="#fff" stroke-width="4" stroke-linecap="round" stroke-linejoin="round"></path>
</svg>