<svg xmlns="http://www.w3.org/2000/svg" width="100%" height="100%" viewBox="0 0 64 64" fill="none" preserveAspectRatio="xMidYMid meet" aria-hidden="true" role="img">
<path opacity="0.4" d="M8 20.8C8 16.3196 8 14.0794 8.87195 12.3681C9.63894 10.8628 10.8628 9.63894 12.3681 8.87195C14.0794 8 16.3196 8 20.8 8H43.2C47.6806 8 49.9206 8 51.6321 8.87195C53.1374 9.63894 54.3611 10.8628 55.1281 12.3681C56.0001 14.0794 56.0001 16.3196 56.0001 20.8V35.2C56.0001 39.6806 56.0001 41.9206 55.1281 43.632C54.3611 45.1374 53.1374 46.3611 51.6321 47.128C49.9206 48 47.6806 48 43.2 48H36.4899C34.8259 48 33.9939 48 33.1979 48.1635C32.4918 48.3083 31.8086 48.5481 31.1667 48.8761C30.4432 49.2457 29.7934 49.7654 28.4939 50.8049L22.1327 55.8939C21.0231 56.7817 20.4684 57.2254 20.0015 57.2259C19.5954 57.2265 19.2113 57.0417 18.958 56.7243C18.6667 56.3595 18.6667 55.6491 18.6667 54.2281V48C16.1868 48 14.9468 48 13.9294 47.7275C11.1687 46.9878 9.01232 44.8312 8.27259 42.0707C8 41.0534 8 39.8134 8 37.3334V20.8Z" stroke="#fff" stroke-width="4" stroke-linecap="round" stroke-linejoin="round"></path>
<path d="M22.6667 33.3337C22.6667 33.3337 26.1667 37.3337 32 37.3337C37.8334 37.3337 41.3334 33.3337 41.3334 33.3337M39.3334 20.0003H39.36M24.6667 20.0003H24.6934M40.6667 20.0003C40.6667 20.7367 40.0696 21.3337 39.3334 21.3337C38.5971 21.3337 38 20.7367 38 20.0003C38 19.264 38.5971 18.667 39.3334 18.667C40.0696 18.667 40.6667 19.264 40.6667 20.0003ZM26 20.0003C26 20.7367 25.4031 21.3337 24.6667 21.3337C23.9303 21.3337 23.3334 20.7367 23.3334 20.0003C23.3334 19.264 23.9303 18.667 24.6667 18.667C25.4031 18.667 26 19.264 26 20.0003Z" stroke="#fff" stroke-width="4" stroke-linecap="round" stroke-linejoin="round"></path>
</svg>