<svg fill="none" height="56" viewBox="0 0 56 56" width="56" xmlns="http://www.w3.org/2000/svg"><path clip-rule="evenodd" d="m39.0541 17.1693c-.0545-.0727-.1152-.1489-.1782-.2281-.4368-.5484-.9867-1.2389-.3986-1.911.3605-.2643.4567-.4807.5047-.8652.1442-1.2979.0721-1.8747-.0961-2.5958.0084-.0253.0317-.0299.0603-.0355.053-.0105.1248-.0247.156-.1808.1442-.6249-.2163-.745-.2163-.745.2644-.2404.2403-1.10564-.1923-1.10564.2404-.38453.0241-1.00948-.3845-.86528 0 0 .2163-.12017.1923-.38453-.0267-.30684-.283-.27308-.4728-.24796-.1523.02007-.2618.03446-.1762-.13658.0961-.19229-.3365-.84123-.5768-.3365-.0636-.04236-.0524-.12669-.0407-.21601.0149-.11344.031-.23494-.1035-.28872-.1007 0-.2014.05855-.3184.1266v.00005c-.0507.02943-.1043.06064-.1624.08966-.017-.07681-.0007-.13846.0155-.20003.0295-.11183.0589-.22337-.1116-.42487-.2397-.17581-.3306-.06466-.4425.07196-.0563.06882-.1178.14411-.2064.19242-.1776-.03739-.1226-.10386-.0469-.19518.1189-.14348.2886-.34828-.3136-.59797-.1935.43974-.2325.32596-.2772.19563v-.00002c-.0164-.04775-.0335-.09772-.0593-.1235-.0567-.03777-.1578.058-.3384.22903-.0494.04663-.1045.09887-.1663.15553.0329-.09349.076-.19074.117-.28343.1384-.31241.2537-.57287-.117-.46165-.4322.18791-.3356.03792-.2728-.05944l.0001-.00005c.0175-.02715.0323-.0502.0323-.06069.4807-.2163-.4326-.72104-.4086-.19227-.024.36052-.8171.697-.5768.24035.0647-.24814.2409-.2154.361-.19307.1474.02742.2105.03915-.1207-.50394-.1389.15749-.2707.29712-.3844.41753l-.0001.00007v.00003c-.1812.19192-.3163.33497-.3605.42359-.1653.66089-.1806.59612-.2223.42022-.0311-.13115-.0769-.32409-.2104-.32409.4087-.26438.9134-.74507.7692-1.05752-.4326-.02404-1.4181.67297-.7932.72104-.0481.21631-.4086.48069-.6249.09614.3605-.09614.9614-1.27384.1923-.91332-.0313.03125-.0489.08957-.0707.16129v.00001.00002c-.0285.09377-.064.21043-.1456.31937-.1011-.10111-.0894-.22828-.0796-.33453v-.00002c.0065-.07052.0122-.13182-.0166-.17018-.5348-.49204-.4222.59642-.3741 1.06194v.00005c.006.05745.011.10542.0136.13975-.4347-.27166-.3934-.35142-.31-.51256.0642-.124.1532-.2962.0696-.64111-.6489.12017-.8171.38456-.721 1.1056 0 .01201-.006.01802-.012.02403s-.012.01202-.012.02404c-.0073.01455-.0168.03131-.0271.0496-.0238.04212-.0523.0924-.069.14267-.0721.12018-.1683.16825-.2404-.1442.3605-.45666.3125-1.1056-.2884-1.12963v.02403s-.5288.16824-.4807.57683c.0481.45666.2644.57683.2644.57683l-.2163.12018-.2404-.36052c0-.04614.0024-.09503.0048-.14481v-.0001c.0164-.33921.0348-.71975-.6778-.55209-.1592.34495-.0034.54343.1357.72076.1129.14391.2149.27389.1288.45693-.4423.02457-.5016-.1455-.5436-.26632-.0402-.11557-.0648-.18606-.3938.00194.048-.19227-.0962-.74507-.3125-.69701-.0125.04061-.0274.08446-.0431.13066-.1053.30933-.2465.72401.0672.97494-.1202.07211-.4327.02403-.5048-.09614-.0355-.0534-.0118-.12329.0187-.21333.052-.15307.1238-.36438-.0427-.65192-.4128.17513-.4089.46745-.4052.75158.0035.26179.0069.51664-.3158.66647-.3503-.04669-.2639-.21244-.1485-.43391.1222-.23454.2769-.53157-.0198-.8159-.6489.19229-.8893.86526-.6249 1.27384-.013.19473-.0961.33337-.1773.46893-.0692.11541-.1371.2286-.1592.37231-.3364-.04809-.4566-.16827-.5047-.28844-.0168-.07548.0513-.13925.1287-.21173.1444-.13526.3212-.30087.0396-.62949-.3491.06018-.4088.36745-.4509.58381-.0419.21573-.0663.34108-.3423.0411-.0481-.26438-.2404-.4807-.3605-.52876-.2644.19227-.3846.48069-.2163.74507l.2884.36054c-.01 0 .0089.03298.0311.07164.0313.05468.0691.12063.041.12063-.4567-.36053-1.0576-.62491-1.4661-.2163.0425.34043.3112.3983.7392.49055.0554.0119.1134.02442.1741.03818-.5368.05756-.7219.20682-.8846.33803v.00007c-.0413.03329-.0812.06534-.1249.0945-.0709-.42544-.5835-.50221-1.0577-.57322l-.0238-.00358c-.1348.03672-.2445.00483-.3388-.02255-.0908-.02637-.1673-.04861-.238-.00148.1922.5047.6969.86528 1.2738.98545l.0208-.00195c.245-.02217.2728-.02473.4599-.11822.2972.13868.3167.19569.3682.34603.011.03205.0235.06837.0403.1106-.2759.13137-.5303.09754-.7867.06347-.2126-.02831-.4265-.0567-.6553.00863 0 .02404-.1442.02404-.1442-.02403 0 0-.0721-.12017-.0481-.12017-.2163-.4326-.8171-.26436-1.1297-.16823-.048.33647.2885.62487.5769.72104.3846.1442.5047.024.5047.024l.1683-.14421c.141.50351.3157.61891.5666.78451.0486.032.0999.0658.1544.1048-.0865.0289-.1593.0577-.2261.0842-.2115.084-.3643.1446-.7112.1081-.5047-.7692-2.0189-1.12967-1.9709-.7451.2163.8172 1.346 1.0094 1.346 1.0094s-.5769.2163-.4808.4086c.0387.0773.186.1429.3421.2125.2325.1035.4846.2159.4271.3884-.7932-.3605-.9614-.2163-.4086.4807-.3969.0141-.5095-.2307-.619-.4686-.0762-.1655-.1507-.3276-.3184-.3966-.3124.2163-.1201.6969-.1201.6969-.037-.0308-.0913-.0979-.1574-.1795-.1916-.2367-.4817-.5951-.7319-.5415-.1202.0721-.1202.4567.1682.697-.0786.0168-.1663.0272-.2555.0376-.2931.0344-.6025.0706-.6578.3469.5288.4087 1.0815.4087 1.8987.2885 0 0 .1442 0 .3125-.0481.1682-.0481.3846.1683.3846.1683-.1679.0394-.2384.083-.3181.1322-.1145.0707-.2481.1532-.7154.2523-.5288.2404-.9374.5768-.9374 1.1056.3365.1683.7211.3125.9374 0 .2299-.3218.2741-.2723.3382-.2004.0365.0408.0794.089.1665.0803l.2643.0961c-.1064.2604-.4579.3925-.7584.5056-.3097.1164-.5653.2125-.4433.4077.2404.3846.6009.7691.6009.7691s-.8653-.4326-1.1056-.1202c-.2163.2884.2884.7691 1.1777.9614-.0961.0592-.2651.082-.4341.1047-.3801.0511-.7602.1024-.311.5683-.7931.3365-.5287.5528.0961.4086l.2885.024c-.0352.022-.0826.0489-.1361.0792l-.0001.0001c-.2386.1354-.6001.3405-.5608.4976.0125.1372.1934.1125.378.0873.1709-.0234.3449-.0471.3911.0569.0323.1938-.1199.3116-.2306.3973-.054.0417-.098.0759-.1059.1074.2198.1389.3952.0493.5608-.0353.1783-.0912.3454-.1766.5448.0353-.0585.1169-.1999.1785-.3394.2393-.2046.0891-.405.1765-.3336.4337.1202.0961.2825.1201.4447.1442.1622.024.3244.048.4446.1442 0 0-.3365.6248-.1683.721.2621.1223.5114-.1364.6743-.3052.0611-.0635.1101-.1143.143-.1274-.0505.3783.0976.4919.2219.5874.1127.0865.2059.1581.1145.398 0 .0199-.0001.0404-.0002.0613-.0017.2562-.0039.5745.2406.7078.5768-.1682.6249-.6249.6009-1.2979 0-.2403.6489.1442.6489.1442.1888.1444.0594.2786-.1036.4475-.1897.1966-.425.4404-.2569.8023.5191.0684.7431-.1506.9767-.3789.1773-.1733.3601-.352.6816-.4142.2401.1543.0643.3942-.0911.6063-.0625.0852-.1217.166-.1492.2349-.1494.0866-.3117.1113-.4776.1366-.3411.052-.6975.1064-.9885.7046.5877.2487.899.0721 1.114-.0497l.0002-.0001c.0135-.0077.0266-.0152.0395-.0223.0797-.0598.1222-.1072.1568-.1456.0486-.0543.0812-.0907.1796-.1187.0057.0567.006.1255.0063.1988.0011.2371.0025.5208.186.5943.1462-.0162.1936-.0544.2682-.1145h.0001c.0358-.0289.0779-.0629.1403-.1018.0881.0881.0349.2317-.0208.3822-.0659.1781-.1355.3658.0208.483.2644-.048.3606-.2884.3606-.2884.1682.2163.3364.2163.5047.1683.0961-.2163.1201-.7451-.1923-.9374.0765-.0893.2073-.0432.3347.0019.1126.0397.2226.0785.2902.0221.1309.1527.0687.3746.0067.5962-.0746.2669-.1492.5332.1134.6777.246-.0259.3525-.1634.4698-.3148.1005-.1296.2088-.2695.4195-.3582-.025.1588.0225.303.067.4378.0834.2528.1557.4723-.2833.6918 0 .1907.1467.2767.2878.3593.1969.1152.3828.2242.1448.6021.1224.2243.2966.1718.4641.1214.0299-.009.0596-.0179.0888-.0252l.4085-.4567c-.1201.3605-.1442.9373-.048 1.37-.0481.1121-.0428.2322-.0374.3531.0106.2422.0215.488-.3952.6803-.024.1197-.0445.24-.065.3597-.1232.7215-.2435 1.4255-1.0887 1.8996-.2799.5355-1.3241.6581-2.3866.7829-1.0357.1215-2.0888.2452-2.4684.7553.1922.1923 1.9949.1202 2.2112.0481.2016-.1008.3773-.0376.5632.0291.1245.0447.2536.0911.3982.0911.2644 0 .5447-.0294.8251-.0588.5609-.0588 1.1217-.1175 1.5543.0588.466 0 .8946.0063 1.3143.0124.4027.0058.7973.0116 1.2093.0116.397 0 .903-.0702 1.4028-.1394l.0002-.0001c.3777-.0523.7519-.1042 1.0726-.1249.8226.0278 1.3218.0875 1.8255.1477h.0001c.8062.0965 1.6242.1944 3.7985.1648.4377-.0386.703-.098.8956-.141.1671-.0373.2795-.0624.4023-.0513-.1714-.7011-.9791-.6953-1.7748-.6894-.4318.0031-.8602.0062-1.1815-.1037-1.2659-.1187-1.6691-.7746-2.0401-1.3782v-.0001c-.0798-.1297-.1581-.2571-.2432-.3763-.0088-.0158-.0179-.0317-.0271-.0478-.0118-.0209-.024-.042-.0363-.0635-.209-.3651-.4653-.8128-.4653-1.3788-.0707-.4807-.0416-.8283-.0106-1.1994.0218-.2598.0445-.5311.0346-.8676.0679-.5663.6695-.4922 1.0806-.4415l.0001.0001c.0251.003.0495.006.073.0088 1.3218.1202 3.5571-.0722 4.158-.2644.0721-.0241.1442-.0481.1923-.0721.2884-.1202.4326-.2884.4806-.4807v-.0721-.024-.0721-.0241-.0721-.048c0-.0241 0-.0481-.024-.0721 0-.0241 0-.0241-.024-.0481 0-.012-.006-.024-.0121-.0361-.006-.012-.012-.024-.012-.036 0-.024-.024-.0481-.024-.0481 0-.012-.006-.024-.0121-.036-.0059-.0121-.0119-.0241-.0119-.0361 0-.0241-.0241-.0481-.0481-.0721 0-.0241-.024-.0481-.024-.0481-.0121-.012-.0181-.024-.0241-.036-.006-.0121-.012-.024-.024-.0361 0-.012-.006-.018-.0121-.024-.0059-.006-.0119-.012-.0119-.0241-.0121-.024-.0301-.048-.0481-.072v-.0001h-.0001c-.0179-.024-.036-.048-.048-.0721-.1201-.3845-.0961-.6248.0721-.9613.0438-.0483.0893-.0933.133-.1366.1958-.194.3563-.3531.1795-.6085 0 0-1.9228-.4086-.6009-.6249 1.37-.2404.9133-.7932.9133-.7932s-.2163-.5527-.4326-.9854c-.0695-.1506.1905-.2509.4946-.3684.3268-.126.7045-.2719.7792-.5208.2146-.2503-.2755-.8329-.6793-1.3128-.139-.1654-.2679-.3186-.3542-.4418zm-2.8841-.5047c-.1442.024-.3125.048-.4567.024h-.0961c-.0361 0-.0661-.006-.0961-.012-.0301-.006-.0601-.012-.0962-.012h-.0481c-.0215 0-.0432-.0048-.067-.0102-.0291-.0065-.0615-.0139-.1012-.0139h-.0241c-.0961-.024-.1682-.048-.2403-.0721-.024 0-.0481 0-.0481-.024l-.2163-.0721c-.2884-.1202-.4566-.2403-.4085-.2884l.2163-.1442c.1201-.0722.2643-.1443.4326-.2164.024 0 .024 0 .048-.024.014-.0046.0287-.0093.0441-.014.0642-.0201.1381-.0433.1963-.0821.012 0 .024-.006.0361-.012.0119-.006.024-.0121.036-.0121.0099 0 .0199-.0041.0315-.0089.0165-.0069.0364-.0151.0646-.0151h.024c.0482-.024.1203-.024.1683-.024h.0241c.0215 0 .048-.0049.0771-.0102h.0001c.0356-.0066.0753-.0139.115-.0139h.0241.3124.024c.0481 0 .0721 0 .1202.0241h.0481c.024 0 .048.006.0721.012.024.006.048.012.0721.012h.024c.024.0121.0541.018.0842.024.03.0061.06.0121.084.0241.1683.048.2163.2163.2405.4086-.0238.4993-.4004.5282-.711.552zm-9.4698-9.20539-.3845-.12018c-.2163.28842-.3124.5047-.0961 1.03351l.1922.40856.0298-.02979c.4462-.44566.87-.86893.2586-1.2921zm-3.7013 1.24979.2404-.12016c.4326-.0721.769.04806 1.1296.2884l-.0481.40856c-.2644.36058-1.2498-.1442-1.3219-.5768zm-2.3073 4.5185-.3125.2164c.625.2163 1.1537-.1203 1.37-.5529l.0962-.4085c-.0508.0096-.1005.0183-.1488.0268l-.0001.0001c-.4321.0758-.7671.1345-1.0048.7181zm1.0816 7.1623.2403-.1922c.1682-.3365.5768-.5288 1.0094-.6249l-.024.3365c-.1202.3124-.697.673-1.2257.4806zm2.6678 1.4181.4086.024c.0295.0242.0628.0501.0983.0776.2822.2192.6946.5395.3102.8598l-.3124-.0721c-.3845-.2163-.5047-.5288-.5047-.8893zm-3.8215-6.8259.0961.3366c-.0275.0336-.0566.0723-.0877.1137-.2136.2842-.5236.6969-1.0899.4871v-.2644c.2163-.3845.5768-.5528 1.0815-.673zm-1.4661 3.413.2163.1201c.5453.1693.6934-.1323.8127-.3752.0331-.0675.064-.1305.1006-.1776l.2644-.2403c-.6489-.1202-1.2258.3365-1.394.673zm-12.66636 25.8133c.00562-.118.01125-.2331.01679-.3467.04186-.8571.07935-1.6245.07935-2.8979v-4.8791c0-1.7545-.12017-3.1005-.36052-4.3983h3.22062c0 .393-.01875.8564-.03975 1.3736-.02644.6532-.05638 1.3921-.05638 2.1835v4.5666c0 1.2738.19226 3.1966.36049 4.3983zm40.72106-7.3137c.1014.0186.2033.0373.3061.0552h.048v-1.8266l-.0674-.007h-.0001c-.673-.0697-1.3249-.1373-1.9994-.1373-2.1391 0-3.7254.8653-3.7254 2.4516 0 1.3459 1.2979 2.4035 2.3314 2.9082.1606.0889.3144.1718.46.2505.8791.4744 1.4627.7894 1.4627 1.2636 0 .6009-.6729.8893-1.3219.8893-.9941 0-2.0813-.3496-2.7569-.5668l-.0311-.01v1.9228c.1467.0317.2895.0641.4304.096.7132.1617 1.3784.3126 2.2615.3126 2.3554 0 3.8936-.9854 3.8936-2.716 0-1.5619-1.305-2.2617-2.2858-2.7876l-.0456-.0244c-.0882-.0472-.1757-.0936-.2617-.1392-.9211-.4884-1.685-.8934-1.685-1.399 0-.4567.6969-.697 1.6583-.697.4501 0 .8841.0796 1.3282.1611zm-6.7599 2.8192c0 2.6438-1.9468 4.807-4.8791 4.807-2.8841 0-4.903-2.019-4.927-4.807 0-2.8601 1.9948-4.7108 4.927-4.7108 2.9082 0 4.8791 1.9228 4.8791 4.7108zm-4.8791-2.788c-1.6343 0-2.4275 1.1296-2.4275 2.788 0 1.6344.8893 2.8601 2.4275 2.8841 1.6344 0 2.4035-1.2497 2.4035-2.8841 0-1.7786-.7931-2.788-2.4035-2.788zm-21.0543 7.7631c0 .5048 0 2.019.1923 3.3649l-3.0524.1683c.0171-.2004.0466-.4921.0815-.8379.1117-1.1058.279-2.764.279-3.7527v-3.6774c0-1.5863-.2644-3.0283-.5528-4.5665l2.3314-.1683c.1043.2954.1709.5783.2451.8941l.0001.0002c.0284.1209.058.2465.0912.3796l.0535-.0579c.5922-.6413 1.3448-1.4564 3.071-1.4564 2.5718 0 4.3503 2.043 4.3503 4.9272 0 2.6678-1.7064 4.5906-4.2301 4.5906-1.3705 0-2.0701-.4067-2.6972-.7711l-.0002-.0002c-.0547-.0317-.1087-.0631-.1627-.0939zm2.1631-7.7631c-1.5862 0-2.3314 1.2257-2.3314 3.0283 0 1.7305.8894 2.6198 2.4516 2.6438 1.5622 0 2.3554-1.0575 2.3554-2.6438 0-1.7785-1.0095-3.0283-2.4756-3.0283zm11.399-.0655h-.0002c-.3658-.07-.6629-.1268-1.0879-.1268-.9614 0-1.6584.2403-1.6584.697 0 .5055.7639.9106 1.6851 1.399.086.0456.1734.092.2617.1392l.0456.0244c.9807.5259 2.2858 1.2257 2.2858 2.7876 0 1.7306-1.5382 2.716-3.8937 2.716-.8831 0-1.5482-.1509-2.2614-.3126-.141-.0319-.2838-.0643-.4305-.096v-1.9228l.0312.01c.6755.2172 1.7629.5668 2.7569.5668.6489 0 1.3219-.2884 1.3219-.8893 0-.4742-.5837-.7892-1.4627-1.2636-.1457-.0787-.2995-.1616-.4601-.2505-1.0335-.5047-2.3314-1.5623-2.3314-2.9082 0-1.5863 1.5863-2.4516 3.7254-2.4516.697 0 1.5383.0962 2.2112.1924l-.3845 1.7545c-.1278-.0223-.244-.0445-.354-.0655z" fill="#fff" fill-rule="evenodd"/></svg>