<svg fill="none" height="72" viewBox="0 0 73 72" width="73" xmlns="http://www.w3.org/2000/svg"><g fill="#fff"><path d="m44.3031 26.5536h-8.0266v.7085c.4132.0591.7083.0591.9443.1181.2951.0591.5312.1771.7083.2952.4721.4133.4721 1.1808.4721 2.5388v9.3284c0 1.8893.1771 4.5461-2.5378 4.5461-1.1214 0-2.3017-.8266-2.7149-2.3026h-.9443c.4132 2.4797 1.7116 4.1919 4.9576 4.1919 2.7739 0 5.1937-1.2399 5.1937-5.5498v-10.096c0-1.3579 0-2.1254.4722-2.5387.2951-.2362.5311-.4133 1.4164-.4723z"/><path d="m53.5102 26.5536h-8.0266v.7676c.8263.059 1.0623.2361 1.4165.4723.4131.3542.4721.8856.4721 1.7712v.9447 11.0996.9446c0 .8857-.059 1.4761-.4721 1.7713-.2951.2361-.5312.4132-1.4165.4723v.7675h12.1579l1.2985-3.7195h-.9443c-.9444 2.0664-2.3608 2.3025-3.6592 2.3025-1.0624 0-1.7706-.059-2.3018-.4132-.4131-.2362-.5902-.9447-.5902-2.1255v-11.3358c0-1.3579 0-2.1255.4722-2.5387.2951-.2362.8263-.3543 1.6525-.4133z"/><path d="m66.8486 26.5536h-8.0266v.7676c.8262.059 1.0623.2361 1.4164.4723.4132.3542.4722.8856.4722 1.7712v.9447 11.0996.9446c0 .8857-.059 1.4761-.4722 1.7713-.2951.2361-.5311.4132-1.4164.4723v.7675h12.1579l1.2984-3.7195h-.9443c-.9443 2.0664-2.3607 2.3025-3.6592 2.3025-1.0623 0-1.7705-.059-2.3017-.4132-.4131-.2362-.5902-.9447-.5902-2.1255v-11.3358c0-1.3579 0-2.1255.4722-2.5387.2951-.2362.8262-.3543 1.6525-.4133-.059 0-.059-.7676-.059-.7676z"/><path d="m15.974 28.0886c.6492 1.8893 1.0033 3.8966 1.1214 5.904.059.6495.059 1.358.059 2.0664 0 .7085 0 1.358-.059 2.0665-.1771 2.4206-.7083 4.9003-1.5936 7.1439-.3541.8856-.7672 1.7122-1.2984 2.5387-.118.1771-.2361.4133-.3541.5904-.2361.3543-.5312.7675-.8263 1.1218-.3541.4133-.7082.8266-1.0623 1.1808-.4131.4133-.8263.7675-1.2984 1.0627-.059 0-.059.0591-.1181.0591v.059c.8263 0 1.7116-.2361 2.4788-.5904.3542-.1771.7083-.3542 1.0624-.5904.059-.059.118-.1181.2361-.1771.4131-.2952.8262-.7085 1.1803-1.0627.4722-.5314.8853-1.0628 1.2985-1.6532.2951-.4723.5902-.9446.8262-1.417 1.0034-1.9483 1.5936-4.0738 1.9477-6.1992.236-1.358.2951-2.7159.2951-4.0738 0-1.358-.1181-2.7159-.2951-4.0738-.3541-2.1255-.9443-4.2509-1.9477-6.1993-.118-.2361-.236-.4723-.3541-.6494-.5312.8856-.9443 1.8893-1.2984 2.893z"/><path d="m18.453 23.2471c.118.1772.2361.3543.3541.5314 2.0066 3.0111 3.01 6.6716 3.246 10.2731.0591.6494.0591 1.3579.0591 2.0664s0 1.3579-.0591 2.0664c-.236 3.6015-1.2394 7.203-3.246 10.2731-.2361.3542-.5312.7675-.8263 1.1218-.3541.4132-.7082.8265-1.0623 1.1808-.4132.4132-.8263.7675-1.2984 1.0627-.0591 0-.0591.059-.1181.059v.0591c.8263 0 1.7116-.2362 2.4788-.5904.3541-.1772.7083-.3543 1.0624-.5904.059-.0591.118-.1181.236-.1772 1.4165-1.0627 2.4788-2.5977 3.3051-4.1328 1.0033-1.9483 1.5935-4.0738 1.9476-6.1993.2361-1.3579.2951-2.7158.2951-4.0738 0-1.3579-.118-2.7158-.2951-4.0738-.3541-2.1254-.9443-4.2509-1.9476-6.1992-.7672-1.476-1.7115-2.834-3.01-3.8967-.4131.2952-.7672.7675-1.1213 1.2398z"/><path d="m20.4595 20.2953c1.2985.8856 2.4198 2.1845 3.3051 3.4834 2.0067 3.0111 3.01 6.6716 3.2461 10.2731.059.6494.059 1.3579.059 2.0664s0 1.3579-.059 2.0664c-.2361 3.6015-1.2394 7.203-3.2461 10.2731-.8853 1.2989-2.0066 2.5387-3.3051 3.4834v.059c1.3575-.059 2.6559-.5314 3.7773-1.3579 1.4164-1.0628 2.4788-2.5978 3.305-4.1329 1.0034-1.9483 1.5935-4.0738 1.9477-6.1992.236-1.358.2951-2.7159.2951-4.0738 0-1.358-.1181-2.7159-.2951-4.0738-.2951-2.1255-.9443-4.2509-1.9477-6.1993-.8262-1.5941-1.8886-3.0701-3.305-4.1328-1.1214-1.0037-2.4788-1.5351-3.7773-1.5351z"/><path d="m20.4594 20.2359c-.8263 0-1.7116.2362-2.4788.5904-.3541.1772-.7082.3543-1.0624.5904-.059.0591-.118.1181-.236.1772-.4132.2952-.8263.7085-1.1804 1.0627-.4722.5314-.8853 1.0627-1.2984 1.6531-.2951.4724-.5902.9447-.8263 1.417-1.0033 1.9484-1.5935 4.0738-1.9476 6.1993-.2361 1.3579-.2951 2.7749-.2951 4.0738 0 1.3579.118 2.7158.2951 4.0738.3541 2.1254.9443 4.2509 1.9476 6.1992.118.2362.2361.4724.3541.6495.5312-.9447.9443-1.9484 1.2984-3.0111-.6492-1.8893-1.0033-3.8967-1.1213-5.904-.059-.6495-.059-1.358-.059-2.0665s0-1.3579.059-2.0664c.177-2.4207.7082-4.9004 1.5935-7.1439.3541-.8856.7672-1.7122 1.2984-2.5387.118-.1772.2361-.4133.3541-.5904.2361-.3543.5312-.7676.8263-1.1218.3541-.4133.7082-.8266 1.0623-1.1808.4132-.4133.8263-.7676 1.2985-1.0628 0 .1181.059.0591.118 0z"/><path d="m15.5019 20.2359c-.8263 0-1.7116.2362-2.4788.5904-.3541.1772-.7083.3543-1.0624.5904-.059.0591-.118.1181-.236.1772-1.4165 1.0627-2.47885 2.5978-3.30512 4.1328-1.00333 1.9484-1.59352 4.0738-1.94763 6.1993-.23608 1.3579-.2951 2.7749-.2951 4.0738 0 1.3579.11804 2.7158.2951 4.0738.35411 2.1254.9443 4.2509 1.94763 6.1992.76725 1.4761 1.71152 2.834 3.01002 3.8967.4131-.4133.7672-.8856 1.1213-1.3579-.118-.1771-.2361-.3543-.3541-.5314-2.0066-3.0111-3.00997-6.6716-3.24605-10.273-.05902-.6495-.05902-1.358-.05902-2.0665s0-1.3579.05902-2.0664c.23608-3.6015 1.23945-7.2029 3.24605-10.273.2361-.3543.5312-.7676.8263-1.1218.3541-.4133.7082-.8266 1.0623-1.1808.4132-.4133.8263-.7676 1.2984-1.0628.0591.1181.0591.0591.1181 0z"/><path d="m6.82612 21.5941c-1.41646 1.0627-2.47881 2.5978-3.30507 4.1328-1.00333 1.9484-1.59352 4.0738-1.94763 6.1993-.23608 1.3579-.2951 2.7749-.2951 4.0738 0 1.3579.11804 2.7159.2951 4.0738.35411 2.1255.9443 4.2509 1.94763 6.1993.82626 1.5941 1.88861 3.0701 3.30507 4.1328 1.06234.8266 2.41978 1.2989 3.77718 1.3579v-.059c-1.29838-.8856-2.41974-2.1845-3.30503-3.4834-2.00665-3.0111-3.00997-6.6716-3.24605-10.2731-.05902-.6494-.05902-1.3579-.05902-2.0664s0-1.3579.05902-2.0664c.23608-3.6015 1.2394-7.203 3.24605-10.2731.88529-1.2989 2.00665-2.5387 3.30503-3.4834v-.059c-1.3574.2952-2.71484.8266-3.77718 1.5941z"/><path d="m16.3873 50.2289c.4131-.4133.7673-.8856 1.1214-1.3579-.1181-.1771-.2361-.3543-.3541-.5314-.1181-.1771-.2361-.3542-.3542-.5904-.4131.5904-.8262 1.1218-1.2984 1.6532.2951.2952.5312.5904.8853.8265z"/><path d="m19.0431 50.6422c-.3541.2361-.7082.4133-1.0623.5904.7672.3542 1.5935.5904 2.4788.5904v-.059c-.5312-.2952-1.0033-.7085-1.4165-1.1218z"/><path d="m15.0296 51.823c.1181 0 .2951-.059.4132-.059-.1181-.1181-.2951-.1772-.4132-.2952-.3541-.2362-.6492-.5314-.9443-.8266-.3541.2361-.7082.4133-1.0623.5904.5312.2362 1.0623.4133 1.5935.5314.1771 0 .2951.059.4131.059zm.4722 0c0-.059-.059-.059-.059-.1181-.1181 0-.2951.0591-.4132.0591.1771.059.2951.059.4722.059z"/><path d="m14.6165 21.8893c-.4131.4133-.7672.8856-1.1213 1.358.118.1771.236.3542.3541.5313.118.1771.236.3543.3541.5904.4131-.5904.8263-1.1217 1.2984-1.6531-.2951-.2952-.5312-.5904-.8853-.8266z"/><path d="m11.9607 21.4761c.3541-.2361.7082-.4133 1.0623-.5904-.7672-.3542-1.5935-.5904-2.4788-.5904v.0591c.5312.2952 1.0034.7084 1.4165 1.1217z"/><path d="m17.9806 20.8263c-.5312-.2361-1.0621-.4131-1.5933-.5311-.118 0-.2951-.0591-.4131-.0591-.1771 0-.2951 0-.4722-.059l-.0001.0588.0591.0593c.1181.118.2951.1771.4132.2952.2951.2361.649.5311.944.8263.2951-.1771.6493-.4132 1.0624-.5904z"/></g></svg>