<svg fill="none" height="24" viewBox="0 0 158 24" width="158" xmlns="http://www.w3.org/2000/svg"><g fill="#fff"><path clip-rule="evenodd" d="m49.1906 23.0451h-4.3805v-23.0451h4.3805v8.63398h.0635c1.3014-2.03152 3.8091-2.85683 6.4437-2.85683 6.412 0 9.2054 4.66615 9.2054 8.91965 0 4.317-2.7934 8.9832-9.2054 8.9832-3.4917 0-6.1263-1.9363-6.4437-2.9521h-.0635zm11.1416-8.3483c0-2.7933-1.5553-5.55494-5.6819-5.55494-4.0948 0-5.6502 2.76164-5.6502 5.55494 0 2.8568 1.5554 5.6185 5.6502 5.6185 4.1266 0 5.6819-2.7617 5.6819-5.6185z" fill-rule="evenodd"/><path d="m19.6487 12.1257c-.9206-5.68195-6.6977-6.53901-9.2371-6.53901-6.50726 0-10.4116 3.61866-10.4116 9.04661 0 4.6344 2.88858 9.0467 10.4116 9.0467 1.1744 0 8.3165-.0953 9.3323-7.0786h-4.5709c-.9206 2.3807-1.8411 3.7139-5.23757 3.7139-3.77737 0-5.3645-2.7617-5.3645-5.682s1.77759-5.68189 5.84067-5.68189c2.5076 0 4.3487 1.42839 4.6661 3.17429z"/><path clip-rule="evenodd" d="m40.5216 11.2369c0-2.19026-.2539-5.65021-9.0466-5.65021-4.9836 0-8.2531 1.36494-8.8879 5.77711h4.2852c.1587-1.87277 1.7141-2.7933 4.6027-2.7933 2.5394 0 4.7614.47614 4.7614 2.4124 0 1.3015-.6666 1.5237-6.9516 2.1268l-.0362.0033c-2.7981.2543-7.5186.6832-7.5186 5.2977 0 3.3012 2.476 5.2693 6.8564 5.2693 4.9201 0 7.0469-1.4919 7.9039-2.3172.127.6348.4444 2.1585 3.3013 2.1585 1.2192 0 1.9509-.1484 2.6454-.2893.0251-.0051.0503-.0102.0754-.0153v-3.1063c-.3407.0308-.7511.0461-1.0385.0461-.2857 0-.9523-.0317-.9523-.9522zm-4.3804 5.047c0 3.7139-3.9679 4.6027-6.3168 4.6027-1.4919 0-3.5234-.4126-3.5234-2.6346 0-1.4284.7935-2.1585 4.0948-2.5394 3.1107-.3492 4.4757-.5079 5.7454-1.0475z" fill-rule="evenodd"/><path clip-rule="evenodd" d="m127.796 0h-4.381v8.63398h-.063c-1.302-2.03152-3.81-2.85683-6.444-2.85683-6.412 0-9.206 4.66615-9.206 8.91965 0 4.317 2.794 8.9832 9.206 8.9832 3.492 0 6.126-1.9363 6.444-2.9521h.063v2.3172h4.381zm-15.523 14.6968c0-2.7933 1.556-5.55494 5.682-5.55494 4.095 0 5.651 2.76164 5.651 5.55494 0 2.8568-1.556 5.6185-5.651 5.6185-4.126 0-5.682-2.7617-5.682-5.6185z" fill-rule="evenodd"/><path d="m134.752 23.0451h-4.381v-23.0451h4.381z"/><path clip-rule="evenodd" d="m157.333 15.7443v-.6348c0-4.9201-2.856-9.52281-10.316-9.52281-5.968 0-10.126 3.58692-10.126 9.20531 0 4.4757 2.825 8.888 10.412 8.888 6.412 0 8.697-3.7139 9.649-5.5867h-4.761c-.857 1.3966-2.127 2.4124-5.015 2.4124-4.349 0-5.619-2.8886-5.714-4.7614zm-15.871-2.7933c.73-3.42822 3.587-4.3805 5.618-4.3805 2.159 0 5.143 1.01576 5.682 4.3805z" fill-rule="evenodd"/><path d="m76.217 5.52661c-3.1029 0-5.4946 1.16311-7.0883 2.98913-1.5565 1.78336-2.2425 4.07046-2.2425 6.19576 0 2.1458.6827 4.446 2.2397 6.2383 1.5944 1.8354 3.9879 2.9988 7.0911 2.9988 3.6247 0 5.8006-2.1745 6.589-2.9623l.0197-.0197 2.0369-2.117-2.6551-2.5545-2.0116 2.0908c-.7028.7015-1.9454 1.8783-3.9789 1.8783-2.113 0-3.4639-.7571-4.3097-1.7307-.8832-1.0167-1.3367-2.414-1.3367-3.822 0-1.3762.4502-2.7605 1.3339-3.7731.8466-.9699 2.1992-1.72738 4.3125-1.72738 1.5405 0 2.8089.63244 3.9786 1.79968l9.5519 9.9277c.5899.6394 3.0296 3.0102 6.6358 3.0102 3.1032 0 5.4967-1.1634 7.0907-2.9988 1.557-1.7923 2.24-4.0925 2.24-6.2383 0-2.1253-.686-4.4124-2.242-6.19576-1.594-1.82602-3.9858-2.98913-7.0887-2.98913-2.7016 0-4.9864 1.1644-6.6315 2.92739l-1.9479 2.0245 2.6551 2.5545 1.9689-2.0464.0106-.0114c1.024-1.10096 2.3659-1.76418 3.9448-1.76418 2.1133 0 3.4659.75748 4.3127 1.72748.884 1.0125 1.334 2.3968 1.334 3.773 0 1.408-.454 2.8053-1.337 3.822-.8458.9736-2.1967 1.7307-4.3097 1.7307-2.0387 0-3.5639-1.4263-3.9344-1.8313l-.0157-.0171-9.6068-9.98481-.0121-.01209c-1.6935-1.69603-3.8562-2.89229-6.5973-2.89229z"/></g></svg>