<svg fill="none" height="72" viewBox="0 0 73 72" width="73" xmlns="http://www.w3.org/2000/svg"><path clip-rule="evenodd" d="m66.1728 26.1591-1.3465 4.2738c-1.0746-.5212-2.5384-.9821-4.5985-.9821-2.2084 0-4.0022.3358-4.0022 2.0602 0 3.0415 8.0952 1.9069 8.0952 8.4264 0 5.9333-5.3477 7.4724-10.1863 7.4724-2.1502 0-4.6295-.5249-6.4505-1.111l1.3146-4.3661c1.1028.7394 3.3158 1.2315 5.1359 1.2315 1.7347 0 4.4495-.3387 4.4495-2.5523 0-3.446-8.0943-2.1534-8.0943-8.2081 0-5.5382 4.7204-7.1977 9.2907-7.1977 2.5703 0 4.9877.2784 6.3924.953zm-16.0405-.5852-4.3321 21.4643h-5.5832l1.852-9.1931h-6.6033l-1.852 9.1931h-5.5832l4.3313-21.4643h5.5832l-1.6402 8.2119h6.6006l1.6437-8.2119zm-19.8298 0-4.4186 21.4643h-6.9333l-4.3595-14.8527h-.0581l-2.9003 14.8527h-5.2577l4.454-21.4643h6.956l4.2732 14.8846h.059l2.9267-14.8846zm-25.73219 24.0928h63.99999v-26.6667h-63.99999z" fill="#fff" fill-rule="evenodd"/></svg>