<svg width="56" height="56" viewBox="0 0 56 56" fill="none" xmlns="http://www.w3.org/2000/svg">
<path d="M54 25.911V22.7739H42.0851V34.3331C42.0209 32.9789 41.5272 31.9282 40.5922 31.1893C39.9457 30.6785 38.975 30.2701 37.6798 29.965L34.7245 29.2669C33.5841 29 32.8385 28.7676 32.4873 28.5691C32.1646 28.3935 31.9381 28.1642 31.806 27.8824L31.8058 27.8828C31.8048 27.8808 31.8041 27.8789 31.8031 27.8769C31.7153 27.6842 31.6648 27.4592 31.6648 27.2176C31.6648 26.7009 31.8421 26.2612 32.2085 25.9158C32.2085 25.9153 32.2087 25.9148 32.2087 25.9148C32.2166 25.9069 32.2249 25.8997 32.2328 25.8925L32.2329 25.8923C32.2332 25.8909 32.2335 25.8906 32.234 25.8915C32.314 25.8185 32.4018 25.7497 32.4989 25.6856C33.0532 25.3195 33.7951 25.1364 34.7243 25.1364C35.5596 25.1364 36.2585 25.2778 36.8208 25.5597C37.6642 25.9871 38.1169 26.708 38.1794 27.7224H41.561C41.4992 25.9298 40.8343 24.5626 39.566 23.6204C38.2974 22.6783 36.765 22.2073 34.9689 22.2073C32.8177 22.2073 31.1869 22.7069 30.0765 23.7061C29.3939 24.3207 28.9221 25.032 28.6591 25.8394H28.6578C28.6013 26.0133 28.5539 26.1941 28.5167 26.3767H28.5164C28.1047 28.3217 26.8541 29.6428 24.7634 29.6428C21.4158 29.6428 20.1584 26.7903 20.1584 23.9612C20.1584 20.9903 21.4158 18.1385 24.7634 18.1385C26.6138 18.1385 28.2284 19.4216 28.4654 21.1091H32.0735C31.6222 17.1872 28.4892 15 24.7636 15C19.761 15 16.7255 18.568 16.4546 23.2685V15.4045H12.7276V25.9586C12.7276 28.4782 11.8734 29.6429 9.21514 29.6429C6.20073 29.6429 5.72609 27.8126 5.72609 25.9586V15.4045H2V25.9586C2 30.5701 4.65763 32.7807 9.21514 32.7807C13.749 32.7807 16.4544 30.5467 16.4544 25.9586V24.6353C16.7254 29.2131 19.7609 32.7809 24.7634 32.7809C26.8189 32.7809 28.5717 32.1169 29.8643 30.9338C29.9445 30.9983 30.0267 31.0612 30.1134 31.1207C30.7837 31.5861 32.0145 32.017 33.8064 32.4137L35.6296 32.8143C36.6967 33.0432 37.476 33.3063 37.9678 33.6037C38.4589 33.9088 38.7048 34.3401 38.7048 34.8968C38.7048 35.8505 38.2033 36.5027 37.2001 36.8534C36.6713 37.0365 35.9829 37.1279 35.1353 37.1279C33.72 37.1279 32.7206 36.7809 32.1373 36.0866C31.8187 35.7053 31.6046 35.1295 31.4958 34.359H28.1371C28.1371 36.1137 28.7721 37.4924 30.0422 38.4953C31.3125 39.4986 33.0561 40 35.2734 40C37.4442 40 39.1242 39.4908 40.3137 38.4723C41.4076 37.5358 41.9971 36.3776 42.0851 34.9989V39.7465H45.8116V32.7336H52.908V29.8336H45.8116V25.911H54Z" fill="white"/>
</svg>
