<svg fill="none" height="72" viewBox="0 0 73 72" width="73" xmlns="http://www.w3.org/2000/svg"><path clip-rule="evenodd" d="m36.5039 24.4247-4.8099 23.2124h-5.8176l4.8111-23.2124zm24.4791 14.9879 3.0626-8.7161 1.7617 8.7161zm6.4911 8.2245h5.3813l-4.695-23.2124h-4.969c-1.1146 0-2.0571.6707-2.4766 1.7027l-8.7264 21.5097h6.1067l1.2135-3.4671h7.4636zm-15.1836-7.5793c.0233-6.128-8.2097-6.464-8.1512-9.2015.0158-.8331.7867-1.716 2.465-1.9444.8359-.1131 3.1313-.199 5.7383 1.0402l1.0208-4.9228c-1.3984-.524-3.2032-1.0293-5.4428-1.0293-5.7489 0-9.7967 3.1554-9.8306 7.6721-.0365 3.3436 2.8881 5.2074 5.0948 6.3173 2.2669 1.1383 3.0249 1.8669 3.017 2.8854-.0154 1.5589-1.8097 2.2443-3.4803 2.2712-2.9259.0484-4.6238-.8145-5.9781-1.4649l-1.0545 5.0852c1.3594.6449 3.8671 1.204 6.4726 1.2337 6.1081 0 10.1081-3.1177 10.129-7.9422zm-24.0979-15.6331-9.427 23.2124h-6.1508l-4.63699-18.525c-.28117-1.1436-.52608-1.5589-1.38261-2.0386-1.39862-.7821-3.7071-1.5186-5.739731-1.9744l.138026-.6744h9.898205c1.2631 0 2.3987.8669 2.685 2.3665l2.4506 13.4332 6.0535-15.7997z" fill="#fff" fill-rule="evenodd"/></svg>